%TF.GenerationSoftware,KiCad,Pcbnew,7.0.6*%
%TF.CreationDate,2024-01-20T12:46:22+09:00*%
%TF.ProjectId,RoboMasterHatBoard,526f626f-4d61-4737-9465-72486174426f,rev?*%
%TF.SameCoordinates,Original*%
%TF.FileFunction,Copper,L2,Bot*%
%TF.FilePolarity,Positive*%
%FSLAX46Y46*%
G04 Gerber Fmt 4.6, Leading zero omitted, Abs format (unit mm)*
G04 Created by KiCad (PCBNEW 7.0.6) date 2024-01-20 12:46:22*
%MOMM*%
%LPD*%
G01*
G04 APERTURE LIST*
G04 Aperture macros list*
%AMRoundRect*
0 Rectangle with rounded corners*
0 $1 Rounding radius*
0 $2 $3 $4 $5 $6 $7 $8 $9 X,Y pos of 4 corners*
0 Add a 4 corners polygon primitive as box body*
4,1,4,$2,$3,$4,$5,$6,$7,$8,$9,$2,$3,0*
0 Add four circle primitives for the rounded corners*
1,1,$1+$1,$2,$3*
1,1,$1+$1,$4,$5*
1,1,$1+$1,$6,$7*
1,1,$1+$1,$8,$9*
0 Add four rect primitives between the rounded corners*
20,1,$1+$1,$2,$3,$4,$5,0*
20,1,$1+$1,$4,$5,$6,$7,0*
20,1,$1+$1,$6,$7,$8,$9,0*
20,1,$1+$1,$8,$9,$2,$3,0*%
G04 Aperture macros list end*
%TA.AperFunction,ComponentPad*%
%ADD10RoundRect,0.250000X-0.600000X-0.750000X0.600000X-0.750000X0.600000X0.750000X-0.600000X0.750000X0*%
%TD*%
%TA.AperFunction,ComponentPad*%
%ADD11O,1.700000X2.000000*%
%TD*%
%TA.AperFunction,ComponentPad*%
%ADD12RoundRect,0.250000X-0.600000X-0.725000X0.600000X-0.725000X0.600000X0.725000X-0.600000X0.725000X0*%
%TD*%
%TA.AperFunction,ComponentPad*%
%ADD13O,1.700000X1.950000*%
%TD*%
%TA.AperFunction,ComponentPad*%
%ADD14RoundRect,0.250000X0.600000X0.725000X-0.600000X0.725000X-0.600000X-0.725000X0.600000X-0.725000X0*%
%TD*%
%TA.AperFunction,ComponentPad*%
%ADD15R,1.700000X1.700000*%
%TD*%
%TA.AperFunction,ComponentPad*%
%ADD16O,1.700000X1.700000*%
%TD*%
%TA.AperFunction,Conductor*%
%ADD17C,0.200000*%
%TD*%
%TA.AperFunction,Conductor*%
%ADD18C,0.500000*%
%TD*%
G04 APERTURE END LIST*
D10*
%TO.P,J17,1,Pin_1*%
%TO.N,/IO1*%
X92750000Y-67310000D03*
D11*
%TO.P,J17,2,Pin_2*%
%TO.N,GND*%
X95250000Y-67310000D03*
%TD*%
D10*
%TO.P,J16,1,Pin_1*%
%TO.N,/BRAKE_INPUT*%
X130215000Y-67310000D03*
D11*
%TO.P,J16,2,Pin_2*%
%TO.N,GND*%
X132715000Y-67310000D03*
%TD*%
D12*
%TO.P,J14,1,Pin_1*%
%TO.N,+5C*%
X119420000Y-74168000D03*
D13*
%TO.P,J14,2,Pin_2*%
%TO.N,/PHOTO_SENS1*%
X121920000Y-74168000D03*
%TO.P,J14,3,Pin_3*%
%TO.N,GND*%
X124420000Y-74168000D03*
%TD*%
D10*
%TO.P,J9,1,Pin_1*%
%TO.N,/RELAY_OUTPUT*%
X110490000Y-81280000D03*
D11*
%TO.P,J9,2,Pin_2*%
%TO.N,GND*%
X112990000Y-81280000D03*
%TD*%
D10*
%TO.P,J10,1,Pin_1*%
%TO.N,/ESW_INPUT*%
X110530000Y-73660000D03*
D11*
%TO.P,J10,2,Pin_2*%
%TO.N,GND*%
X113030000Y-73660000D03*
%TD*%
D14*
%TO.P,J13,1,Pin_1*%
%TO.N,+3.3V*%
X113204000Y-97045000D03*
D13*
%TO.P,J13,2,Pin_2*%
%TO.N,/ENC2_IN_TIM8_CH1*%
X110704000Y-97045000D03*
%TO.P,J13,3,Pin_3*%
%TO.N,/ENC2_IN_TIM8_CH2*%
X108204000Y-97045000D03*
%TO.P,J13,4,Pin_4*%
%TO.N,/ENC2_IN_Z*%
X105704000Y-97045000D03*
%TO.P,J13,5,Pin_5*%
%TO.N,GND*%
X103204000Y-97045000D03*
%TD*%
D12*
%TO.P,J11,1,Pin_1*%
%TO.N,/PWM1_TIM4_CH1*%
X119420000Y-89645000D03*
D13*
%TO.P,J11,2,Pin_2*%
%TO.N,/PWM1_TIM4_CH2*%
X121920000Y-89645000D03*
%TO.P,J11,3,Pin_3*%
%TO.N,GND*%
X124420000Y-89645000D03*
%TD*%
D14*
%TO.P,J12,1,Pin_1*%
%TO.N,+3.3V*%
X113204000Y-89408000D03*
D13*
%TO.P,J12,2,Pin_2*%
%TO.N,/ENC1_IN_TIM2_CH1*%
X110704000Y-89408000D03*
%TO.P,J12,3,Pin_3*%
%TO.N,/ENC1_IN_TIM2_CH2*%
X108204000Y-89408000D03*
%TO.P,J12,4,Pin_4*%
%TO.N,/ENC1_IN_Z*%
X105704000Y-89408000D03*
%TO.P,J12,5,Pin_5*%
%TO.N,GND*%
X103204000Y-89408000D03*
%TD*%
D12*
%TO.P,J15,1,Pin_1*%
%TO.N,+5C*%
X119420000Y-81771000D03*
D13*
%TO.P,J15,2,Pin_2*%
%TO.N,/PHOTO_SENS2*%
X121920000Y-81771000D03*
%TO.P,J15,3,Pin_3*%
%TO.N,GND*%
X124420000Y-81771000D03*
%TD*%
D15*
%TO.P,J4,1,Pin_1*%
%TO.N,GND*%
X91440000Y-73660000D03*
D16*
%TO.P,J4,2,Pin_2*%
X91440000Y-76200000D03*
%TO.P,J4,3,Pin_3*%
X91440000Y-78740000D03*
%TO.P,J4,4,Pin_4*%
X91440000Y-81280000D03*
%TO.P,J4,5,Pin_5*%
X91440000Y-83820000D03*
%TO.P,J4,6,Pin_6*%
X91440000Y-86360000D03*
%TO.P,J4,7,Pin_7*%
X91440000Y-88900000D03*
%TO.P,J4,8,Pin_8*%
X91440000Y-91440000D03*
%TD*%
D15*
%TO.P,J6,1,Pin_1*%
%TO.N,/ENC1_IN_TIM2_CH1*%
X96520000Y-73660000D03*
D16*
%TO.P,J6,2,Pin_2*%
%TO.N,/ENC1_IN_TIM2_CH2*%
X96520000Y-76200000D03*
%TO.P,J6,3,Pin_3*%
%TO.N,/ENC1_IN_Z*%
X96520000Y-78740000D03*
%TO.P,J6,4,Pin_4*%
%TO.N,unconnected-(J6-Pin_4-Pad4)*%
X96520000Y-81280000D03*
%TO.P,J6,5,Pin_5*%
%TO.N,/ENC2_IN_TIM8_CH1*%
X96520000Y-83820000D03*
%TO.P,J6,6,Pin_6*%
%TO.N,/ENC2_IN_TIM8_CH2*%
X96520000Y-86360000D03*
%TO.P,J6,7,Pin_7*%
%TO.N,/ENC2_IN_Z*%
X96520000Y-88900000D03*
%TO.P,J6,8,Pin_8*%
%TO.N,unconnected-(J6-Pin_8-Pad8)*%
X96520000Y-91440000D03*
%TD*%
D15*
%TO.P,J1,1,Pin_1*%
%TO.N,/PWM1_TIM4_CH1*%
X129540000Y-73660000D03*
D16*
%TO.P,J1,2,Pin_2*%
%TO.N,/PWM1_TIM4_CH2*%
X129540000Y-76200000D03*
%TO.P,J1,3,Pin_3*%
%TO.N,unconnected-(J1-Pin_3-Pad3)*%
X129540000Y-78740000D03*
%TO.P,J1,4,Pin_4*%
%TO.N,unconnected-(J1-Pin_4-Pad4)*%
X129540000Y-81280000D03*
%TO.P,J1,5,Pin_5*%
%TO.N,unconnected-(J1-Pin_5-Pad5)*%
X129540000Y-83820000D03*
%TO.P,J1,6,Pin_6*%
%TO.N,unconnected-(J1-Pin_6-Pad6)*%
X129540000Y-86360000D03*
%TO.P,J1,7,Pin_7*%
%TO.N,unconnected-(J1-Pin_7-Pad7)*%
X129540000Y-88900000D03*
%TO.P,J1,8,Pin_8*%
%TO.N,unconnected-(J1-Pin_8-Pad8)*%
X129540000Y-91440000D03*
%TD*%
D15*
%TO.P,J2,1,Pin_1*%
%TO.N,+5C*%
X132080000Y-73660000D03*
D16*
%TO.P,J2,2,Pin_2*%
X132080000Y-76200000D03*
%TO.P,J2,3,Pin_3*%
X132080000Y-78740000D03*
%TO.P,J2,4,Pin_4*%
X132080000Y-81280000D03*
%TO.P,J2,5,Pin_5*%
X132080000Y-83820000D03*
%TO.P,J2,6,Pin_6*%
X132080000Y-86360000D03*
%TO.P,J2,7,Pin_7*%
X132080000Y-88900000D03*
%TO.P,J2,8,Pin_8*%
X132080000Y-91440000D03*
%TD*%
D15*
%TO.P,J3,1,Pin_1*%
%TO.N,GND*%
X134620000Y-73660000D03*
D16*
%TO.P,J3,2,Pin_2*%
X134620000Y-76200000D03*
%TO.P,J3,3,Pin_3*%
X134620000Y-78740000D03*
%TO.P,J3,4,Pin_4*%
X134620000Y-81280000D03*
%TO.P,J3,5,Pin_5*%
X134620000Y-83820000D03*
%TO.P,J3,6,Pin_6*%
X134620000Y-86360000D03*
%TO.P,J3,7,Pin_7*%
X134620000Y-88900000D03*
%TO.P,J3,8,Pin_8*%
X134620000Y-91440000D03*
%TD*%
D15*
%TO.P,J8,1,Pin_1*%
%TO.N,/PHOTO_SENS1*%
X124460000Y-66040000D03*
D16*
%TO.P,J8,2,Pin_2*%
%TO.N,unconnected-(J8-Pin_2-Pad2)*%
X121920000Y-66040000D03*
%TO.P,J8,3,Pin_3*%
%TO.N,/ESW_INPUT*%
X119380000Y-66040000D03*
%TO.P,J8,4,Pin_4*%
%TO.N,unconnected-(J8-Pin_4-Pad4)*%
X116840000Y-66040000D03*
%TO.P,J8,5,Pin_5*%
%TO.N,unconnected-(J8-Pin_5-Pad5)*%
X114300000Y-66040000D03*
%TO.P,J8,6,Pin_6*%
%TO.N,unconnected-(J8-Pin_6-Pad6)*%
X111760000Y-66040000D03*
%TO.P,J8,7,Pin_7*%
%TO.N,/IO1*%
X109220000Y-66040000D03*
%TO.P,J8,8,Pin_8*%
%TO.N,unconnected-(J8-Pin_8-Pad8)*%
X106680000Y-66040000D03*
%TO.P,J8,9,Pin_9*%
%TO.N,unconnected-(J8-Pin_9-Pad9)*%
X104140000Y-66040000D03*
%TO.P,J8,10,Pin_10*%
%TO.N,+5F*%
X101600000Y-66040000D03*
%TD*%
D15*
%TO.P,J5,1,Pin_1*%
%TO.N,+5V*%
X93980000Y-73660000D03*
D16*
%TO.P,J5,2,Pin_2*%
X93980000Y-76200000D03*
%TO.P,J5,3,Pin_3*%
X93980000Y-78740000D03*
%TO.P,J5,4,Pin_4*%
X93980000Y-81280000D03*
%TO.P,J5,5,Pin_5*%
X93980000Y-83820000D03*
%TO.P,J5,6,Pin_6*%
X93980000Y-86360000D03*
%TO.P,J5,7,Pin_7*%
X93980000Y-88900000D03*
%TO.P,J5,8,Pin_8*%
X93980000Y-91440000D03*
%TD*%
D15*
%TO.P,J7,1,Pin_1*%
%TO.N,/PHOTO_SENS2*%
X124460000Y-68580000D03*
D16*
%TO.P,J7,2,Pin_2*%
%TO.N,unconnected-(J7-Pin_2-Pad2)*%
X121920000Y-68580000D03*
%TO.P,J7,3,Pin_3*%
%TO.N,/RELAY_OUTPUT*%
X119380000Y-68580000D03*
%TO.P,J7,4,Pin_4*%
%TO.N,unconnected-(J7-Pin_4-Pad4)*%
X116840000Y-68580000D03*
%TO.P,J7,5,Pin_5*%
%TO.N,/BRAKE_INPUT*%
X114300000Y-68580000D03*
%TO.P,J7,6,Pin_6*%
%TO.N,unconnected-(J7-Pin_6-Pad6)*%
X111760000Y-68580000D03*
%TO.P,J7,7,Pin_7*%
%TO.N,unconnected-(J7-Pin_7-Pad7)*%
X109220000Y-68580000D03*
%TO.P,J7,8,Pin_8*%
%TO.N,unconnected-(J7-Pin_8-Pad8)*%
X106680000Y-68580000D03*
%TO.P,J7,9,Pin_9*%
%TO.N,unconnected-(J7-Pin_9-Pad9)*%
X104140000Y-68580000D03*
%TO.P,J7,10,Pin_10*%
%TO.N,GND*%
X101600000Y-68580000D03*
%TD*%
D17*
%TO.N,/BRAKE_INPUT*%
X114300000Y-68580000D02*
X115570000Y-67310000D01*
X115570000Y-67310000D02*
X130215000Y-67310000D01*
D18*
%TO.N,+5C*%
X119420000Y-81771000D02*
X119420000Y-74168000D01*
X119420000Y-73259000D02*
X121559000Y-71120000D01*
X121559000Y-71120000D02*
X130810000Y-71120000D01*
X132080000Y-72390000D02*
X132080000Y-73660000D01*
X130810000Y-71120000D02*
X132080000Y-72390000D01*
X119420000Y-74168000D02*
X119420000Y-73259000D01*
%TD*%
%TA.AperFunction,Conductor*%
%TO.N,GND*%
G36*
X91690000Y-91004498D02*
G01*
X91582315Y-90955320D01*
X91475763Y-90940000D01*
X91404237Y-90940000D01*
X91297685Y-90955320D01*
X91190000Y-91004498D01*
X91190000Y-89335501D01*
X91297685Y-89384680D01*
X91404237Y-89400000D01*
X91475763Y-89400000D01*
X91582315Y-89384680D01*
X91690000Y-89335501D01*
X91690000Y-91004498D01*
G37*
%TD.AperFunction*%
%TA.AperFunction,Conductor*%
G36*
X91690000Y-88464498D02*
G01*
X91582315Y-88415320D01*
X91475763Y-88400000D01*
X91404237Y-88400000D01*
X91297685Y-88415320D01*
X91190000Y-88464498D01*
X91190000Y-86795501D01*
X91297685Y-86844680D01*
X91404237Y-86860000D01*
X91475763Y-86860000D01*
X91582315Y-86844680D01*
X91690000Y-86795501D01*
X91690000Y-88464498D01*
G37*
%TD.AperFunction*%
%TA.AperFunction,Conductor*%
G36*
X91690000Y-85924498D02*
G01*
X91582315Y-85875320D01*
X91475763Y-85860000D01*
X91404237Y-85860000D01*
X91297685Y-85875320D01*
X91190000Y-85924498D01*
X91190000Y-84255501D01*
X91297685Y-84304680D01*
X91404237Y-84320000D01*
X91475763Y-84320000D01*
X91582315Y-84304680D01*
X91690000Y-84255501D01*
X91690000Y-85924498D01*
G37*
%TD.AperFunction*%
%TA.AperFunction,Conductor*%
G36*
X91690000Y-83384498D02*
G01*
X91582315Y-83335320D01*
X91475763Y-83320000D01*
X91404237Y-83320000D01*
X91297685Y-83335320D01*
X91190000Y-83384498D01*
X91190000Y-81715501D01*
X91297685Y-81764680D01*
X91404237Y-81780000D01*
X91475763Y-81780000D01*
X91582315Y-81764680D01*
X91690000Y-81715501D01*
X91690000Y-83384498D01*
G37*
%TD.AperFunction*%
%TA.AperFunction,Conductor*%
G36*
X91690000Y-80844498D02*
G01*
X91582315Y-80795320D01*
X91475763Y-80780000D01*
X91404237Y-80780000D01*
X91297685Y-80795320D01*
X91190000Y-80844498D01*
X91190000Y-79175501D01*
X91297685Y-79224680D01*
X91404237Y-79240000D01*
X91475763Y-79240000D01*
X91582315Y-79224680D01*
X91690000Y-79175501D01*
X91690000Y-80844498D01*
G37*
%TD.AperFunction*%
%TA.AperFunction,Conductor*%
G36*
X91690000Y-78304498D02*
G01*
X91582315Y-78255320D01*
X91475763Y-78240000D01*
X91404237Y-78240000D01*
X91297685Y-78255320D01*
X91190000Y-78304498D01*
X91190000Y-76635501D01*
X91297685Y-76684680D01*
X91404237Y-76700000D01*
X91475763Y-76700000D01*
X91582315Y-76684680D01*
X91690000Y-76635501D01*
X91690000Y-78304498D01*
G37*
%TD.AperFunction*%
%TA.AperFunction,Conductor*%
G36*
X91690000Y-75764498D02*
G01*
X91582315Y-75715320D01*
X91475763Y-75700000D01*
X91404237Y-75700000D01*
X91297685Y-75715320D01*
X91190000Y-75764498D01*
X91190000Y-74095501D01*
X91297685Y-74144680D01*
X91404237Y-74160000D01*
X91475763Y-74160000D01*
X91582315Y-74144680D01*
X91690000Y-74095501D01*
X91690000Y-75764498D01*
G37*
%TD.AperFunction*%
%TA.AperFunction,Conductor*%
G36*
X134870000Y-91004498D02*
G01*
X134762315Y-90955320D01*
X134655763Y-90940000D01*
X134584237Y-90940000D01*
X134477685Y-90955320D01*
X134370000Y-91004498D01*
X134370000Y-89335501D01*
X134477685Y-89384680D01*
X134584237Y-89400000D01*
X134655763Y-89400000D01*
X134762315Y-89384680D01*
X134870000Y-89335501D01*
X134870000Y-91004498D01*
G37*
%TD.AperFunction*%
%TA.AperFunction,Conductor*%
G36*
X134870000Y-88464498D02*
G01*
X134762315Y-88415320D01*
X134655763Y-88400000D01*
X134584237Y-88400000D01*
X134477685Y-88415320D01*
X134370000Y-88464498D01*
X134370000Y-86795501D01*
X134477685Y-86844680D01*
X134584237Y-86860000D01*
X134655763Y-86860000D01*
X134762315Y-86844680D01*
X134870000Y-86795501D01*
X134870000Y-88464498D01*
G37*
%TD.AperFunction*%
%TA.AperFunction,Conductor*%
G36*
X134870000Y-85924498D02*
G01*
X134762315Y-85875320D01*
X134655763Y-85860000D01*
X134584237Y-85860000D01*
X134477685Y-85875320D01*
X134370000Y-85924498D01*
X134370000Y-84255501D01*
X134477685Y-84304680D01*
X134584237Y-84320000D01*
X134655763Y-84320000D01*
X134762315Y-84304680D01*
X134870000Y-84255501D01*
X134870000Y-85924498D01*
G37*
%TD.AperFunction*%
%TA.AperFunction,Conductor*%
G36*
X134870000Y-83384498D02*
G01*
X134762315Y-83335320D01*
X134655763Y-83320000D01*
X134584237Y-83320000D01*
X134477685Y-83335320D01*
X134370000Y-83384498D01*
X134370000Y-81715501D01*
X134477685Y-81764680D01*
X134584237Y-81780000D01*
X134655763Y-81780000D01*
X134762315Y-81764680D01*
X134870000Y-81715501D01*
X134870000Y-83384498D01*
G37*
%TD.AperFunction*%
%TA.AperFunction,Conductor*%
G36*
X134870000Y-80844498D02*
G01*
X134762315Y-80795320D01*
X134655763Y-80780000D01*
X134584237Y-80780000D01*
X134477685Y-80795320D01*
X134370000Y-80844498D01*
X134370000Y-79175501D01*
X134477685Y-79224680D01*
X134584237Y-79240000D01*
X134655763Y-79240000D01*
X134762315Y-79224680D01*
X134870000Y-79175501D01*
X134870000Y-80844498D01*
G37*
%TD.AperFunction*%
%TA.AperFunction,Conductor*%
G36*
X134870000Y-78304498D02*
G01*
X134762315Y-78255320D01*
X134655763Y-78240000D01*
X134584237Y-78240000D01*
X134477685Y-78255320D01*
X134370000Y-78304498D01*
X134370000Y-76635501D01*
X134477685Y-76684680D01*
X134584237Y-76700000D01*
X134655763Y-76700000D01*
X134762315Y-76684680D01*
X134870000Y-76635501D01*
X134870000Y-78304498D01*
G37*
%TD.AperFunction*%
%TA.AperFunction,Conductor*%
G36*
X134870000Y-75764498D02*
G01*
X134762315Y-75715320D01*
X134655763Y-75700000D01*
X134584237Y-75700000D01*
X134477685Y-75715320D01*
X134370000Y-75764498D01*
X134370000Y-74095501D01*
X134477685Y-74144680D01*
X134584237Y-74160000D01*
X134655763Y-74160000D01*
X134762315Y-74144680D01*
X134870000Y-74095501D01*
X134870000Y-75764498D01*
G37*
%TD.AperFunction*%
%TA.AperFunction,Conductor*%
G36*
X134621866Y-63800613D02*
G01*
X134693173Y-63804926D01*
X134886200Y-63816601D01*
X134893634Y-63817505D01*
X135152260Y-63864901D01*
X135159530Y-63866692D01*
X135410561Y-63944916D01*
X135417554Y-63947569D01*
X135555118Y-64009481D01*
X135657330Y-64055483D01*
X135663956Y-64058960D01*
X135888969Y-64194986D01*
X135895136Y-64199243D01*
X136102111Y-64361397D01*
X136107711Y-64366358D01*
X136293640Y-64552287D01*
X136298602Y-64557888D01*
X136460756Y-64764863D01*
X136465013Y-64771030D01*
X136601036Y-64996038D01*
X136604519Y-65002674D01*
X136712430Y-65242445D01*
X136715086Y-65249447D01*
X136750212Y-65362171D01*
X136793305Y-65500463D01*
X136795098Y-65507739D01*
X136842494Y-65766365D01*
X136843398Y-65773804D01*
X136859387Y-66038133D01*
X136859500Y-66041877D01*
X136859500Y-91438122D01*
X136859387Y-91441866D01*
X136843398Y-91706195D01*
X136842494Y-91713634D01*
X136795098Y-91972260D01*
X136793305Y-91979536D01*
X136715088Y-92230547D01*
X136712430Y-92237554D01*
X136604519Y-92477325D01*
X136601036Y-92483961D01*
X136465013Y-92708969D01*
X136460756Y-92715136D01*
X136298602Y-92922111D01*
X136293633Y-92927720D01*
X136107720Y-93113633D01*
X136102111Y-93118602D01*
X135895136Y-93280756D01*
X135888969Y-93285013D01*
X135663961Y-93421036D01*
X135657325Y-93424519D01*
X135417554Y-93532430D01*
X135410547Y-93535088D01*
X135159536Y-93613305D01*
X135152260Y-93615098D01*
X134893634Y-93662494D01*
X134886195Y-93663398D01*
X134621866Y-93679387D01*
X134618122Y-93679500D01*
X128110476Y-93679500D01*
X127793461Y-93715219D01*
X127793445Y-93715221D01*
X127482410Y-93786212D01*
X127482398Y-93786216D01*
X127181271Y-93891586D01*
X127181263Y-93891589D01*
X126893836Y-94030006D01*
X126623695Y-94199748D01*
X126374260Y-94398665D01*
X126148665Y-94624260D01*
X125949748Y-94873695D01*
X125780006Y-95143836D01*
X125641589Y-95431263D01*
X125641586Y-95431271D01*
X125536216Y-95732398D01*
X125536212Y-95732410D01*
X125465221Y-96043445D01*
X125465219Y-96043461D01*
X125429500Y-96360476D01*
X125429500Y-96463827D01*
X125429499Y-99037066D01*
X125429500Y-99037071D01*
X125429500Y-99058122D01*
X125429387Y-99061866D01*
X125413398Y-99326195D01*
X125412494Y-99333634D01*
X125365098Y-99592260D01*
X125363305Y-99599536D01*
X125285088Y-99850547D01*
X125282430Y-99857554D01*
X125174519Y-100097325D01*
X125171036Y-100103961D01*
X125035013Y-100328969D01*
X125030756Y-100335136D01*
X124868602Y-100542111D01*
X124863633Y-100547720D01*
X124677720Y-100733633D01*
X124672111Y-100738602D01*
X124465136Y-100900756D01*
X124458969Y-100905013D01*
X124233961Y-101041036D01*
X124227325Y-101044519D01*
X123987554Y-101152430D01*
X123980547Y-101155088D01*
X123729536Y-101233305D01*
X123722260Y-101235098D01*
X123463634Y-101282494D01*
X123456195Y-101283398D01*
X123191866Y-101299387D01*
X123188122Y-101299500D01*
X102871878Y-101299500D01*
X102868134Y-101299387D01*
X102603804Y-101283398D01*
X102596365Y-101282494D01*
X102337739Y-101235098D01*
X102330463Y-101233305D01*
X102163680Y-101181334D01*
X102079447Y-101155086D01*
X102072445Y-101152430D01*
X101832674Y-101044519D01*
X101826038Y-101041036D01*
X101601030Y-100905013D01*
X101594863Y-100900756D01*
X101387888Y-100738602D01*
X101382287Y-100733640D01*
X101196358Y-100547711D01*
X101191397Y-100542111D01*
X101029243Y-100335136D01*
X101024986Y-100328969D01*
X100888963Y-100103961D01*
X100885480Y-100097325D01*
X100777569Y-99857554D01*
X100774916Y-99850561D01*
X100696692Y-99599530D01*
X100694901Y-99592260D01*
X100647505Y-99333634D01*
X100646601Y-99326195D01*
X100630613Y-99061866D01*
X100630500Y-99058122D01*
X100630500Y-97295000D01*
X101859779Y-97295000D01*
X101869430Y-97405316D01*
X101869432Y-97405326D01*
X101930566Y-97633483D01*
X101930570Y-97633492D01*
X102030399Y-97847577D01*
X102030400Y-97847579D01*
X102165886Y-98041073D01*
X102165891Y-98041079D01*
X102332917Y-98208105D01*
X102526421Y-98343600D01*
X102740507Y-98443429D01*
X102740516Y-98443433D01*
X102954000Y-98500634D01*
X102954000Y-97453018D01*
X103068801Y-97505446D01*
X103170025Y-97520000D01*
X103237975Y-97520000D01*
X103339199Y-97505446D01*
X103453999Y-97453018D01*
X103453999Y-98500633D01*
X103667483Y-98443433D01*
X103667492Y-98443429D01*
X103881577Y-98343600D01*
X103881579Y-98343599D01*
X104075073Y-98208113D01*
X104075079Y-98208108D01*
X104242108Y-98041079D01*
X104242113Y-98041073D01*
X104352119Y-97883967D01*
X104406695Y-97840342D01*
X104476194Y-97833148D01*
X104538549Y-97864670D01*
X104555269Y-97883967D01*
X104665505Y-98041402D01*
X104832209Y-98208105D01*
X104832599Y-98208495D01*
X104875675Y-98238657D01*
X105026165Y-98344032D01*
X105026167Y-98344033D01*
X105026170Y-98344035D01*
X105240337Y-98443903D01*
X105468592Y-98505063D01*
X105645034Y-98520500D01*
X105703999Y-98525659D01*
X105704000Y-98525659D01*
X105704001Y-98525659D01*
X105762966Y-98520500D01*
X105939408Y-98505063D01*
X106167663Y-98443903D01*
X106381829Y-98344035D01*
X106575401Y-98208495D01*
X106742495Y-98041401D01*
X106852426Y-97884401D01*
X106907001Y-97840778D01*
X106976500Y-97833584D01*
X107038855Y-97865106D01*
X107055571Y-97884398D01*
X107082457Y-97922795D01*
X107165506Y-98041403D01*
X107332209Y-98208105D01*
X107332599Y-98208495D01*
X107375675Y-98238657D01*
X107526165Y-98344032D01*
X107526167Y-98344033D01*
X107526170Y-98344035D01*
X107740337Y-98443903D01*
X107968592Y-98505063D01*
X108145034Y-98520500D01*
X108203999Y-98525659D01*
X108204000Y-98525659D01*
X108204001Y-98525659D01*
X108262966Y-98520500D01*
X108439408Y-98505063D01*
X108667663Y-98443903D01*
X108881829Y-98344035D01*
X109075401Y-98208495D01*
X109242495Y-98041401D01*
X109352426Y-97884401D01*
X109407001Y-97840778D01*
X109476500Y-97833584D01*
X109538855Y-97865106D01*
X109555571Y-97884398D01*
X109582457Y-97922795D01*
X109665506Y-98041403D01*
X109832209Y-98208105D01*
X109832599Y-98208495D01*
X109875675Y-98238657D01*
X110026165Y-98344032D01*
X110026167Y-98344033D01*
X110026170Y-98344035D01*
X110240337Y-98443903D01*
X110468592Y-98505063D01*
X110645034Y-98520500D01*
X110703999Y-98525659D01*
X110704000Y-98525659D01*
X110704001Y-98525659D01*
X110762966Y-98520500D01*
X110939408Y-98505063D01*
X111167663Y-98443903D01*
X111381829Y-98344035D01*
X111575401Y-98208495D01*
X111722602Y-98061293D01*
X111783924Y-98027810D01*
X111853615Y-98032794D01*
X111909549Y-98074665D01*
X111915821Y-98083879D01*
X111919186Y-98089334D01*
X112011288Y-98238656D01*
X112135344Y-98362712D01*
X112284666Y-98454814D01*
X112451203Y-98509999D01*
X112553991Y-98520500D01*
X113854008Y-98520499D01*
X113956797Y-98509999D01*
X114123334Y-98454814D01*
X114272656Y-98362712D01*
X114396712Y-98238656D01*
X114488814Y-98089334D01*
X114543999Y-97922797D01*
X114554500Y-97820009D01*
X114554499Y-96269992D01*
X114553156Y-96256849D01*
X114543999Y-96167203D01*
X114543998Y-96167200D01*
X114506104Y-96052845D01*
X114488814Y-96000666D01*
X114396712Y-95851344D01*
X114272656Y-95727288D01*
X114141786Y-95646567D01*
X114123336Y-95635187D01*
X114123331Y-95635185D01*
X114121862Y-95634698D01*
X113956797Y-95580001D01*
X113956795Y-95580000D01*
X113854010Y-95569500D01*
X112553998Y-95569500D01*
X112553981Y-95569501D01*
X112451203Y-95580000D01*
X112451200Y-95580001D01*
X112284668Y-95635185D01*
X112284663Y-95635187D01*
X112135342Y-95727289D01*
X112011289Y-95851342D01*
X111915821Y-96006121D01*
X111863873Y-96052845D01*
X111794910Y-96064068D01*
X111730828Y-96036224D01*
X111722601Y-96028705D01*
X111575402Y-95881506D01*
X111575395Y-95881501D01*
X111381834Y-95745967D01*
X111381830Y-95745965D01*
X111352761Y-95732410D01*
X111167663Y-95646097D01*
X111167659Y-95646096D01*
X111167655Y-95646094D01*
X110939413Y-95584938D01*
X110939403Y-95584936D01*
X110704001Y-95564341D01*
X110703999Y-95564341D01*
X110468596Y-95584936D01*
X110468586Y-95584938D01*
X110240344Y-95646094D01*
X110240335Y-95646098D01*
X110026171Y-95745964D01*
X110026169Y-95745965D01*
X109832597Y-95881505D01*
X109665505Y-96048597D01*
X109555575Y-96205595D01*
X109500998Y-96249220D01*
X109431500Y-96256414D01*
X109369145Y-96224891D01*
X109352425Y-96205595D01*
X109242494Y-96048597D01*
X109075402Y-95881506D01*
X109075395Y-95881501D01*
X108881834Y-95745967D01*
X108881830Y-95745965D01*
X108852761Y-95732410D01*
X108667663Y-95646097D01*
X108667659Y-95646096D01*
X108667655Y-95646094D01*
X108439413Y-95584938D01*
X108439403Y-95584936D01*
X108204001Y-95564341D01*
X108203999Y-95564341D01*
X107968596Y-95584936D01*
X107968586Y-95584938D01*
X107740344Y-95646094D01*
X107740335Y-95646098D01*
X107526171Y-95745964D01*
X107526169Y-95745965D01*
X107332597Y-95881505D01*
X107165505Y-96048597D01*
X107055575Y-96205595D01*
X107000998Y-96249220D01*
X106931500Y-96256414D01*
X106869145Y-96224891D01*
X106852425Y-96205595D01*
X106742494Y-96048597D01*
X106575402Y-95881506D01*
X106575395Y-95881501D01*
X106381834Y-95745967D01*
X106381830Y-95745965D01*
X106352761Y-95732410D01*
X106167663Y-95646097D01*
X106167659Y-95646096D01*
X106167655Y-95646094D01*
X105939413Y-95584938D01*
X105939403Y-95584936D01*
X105704001Y-95564341D01*
X105703999Y-95564341D01*
X105468596Y-95584936D01*
X105468586Y-95584938D01*
X105240344Y-95646094D01*
X105240335Y-95646098D01*
X105026171Y-95745964D01*
X105026169Y-95745965D01*
X104832597Y-95881505D01*
X104665508Y-96048594D01*
X104555269Y-96206032D01*
X104500692Y-96249656D01*
X104431193Y-96256849D01*
X104368839Y-96225327D01*
X104352119Y-96206031D01*
X104242113Y-96048926D01*
X104242108Y-96048920D01*
X104075082Y-95881894D01*
X103881578Y-95746399D01*
X103667492Y-95646570D01*
X103667486Y-95646567D01*
X103453999Y-95589364D01*
X103453999Y-96636981D01*
X103339199Y-96584554D01*
X103237975Y-96570000D01*
X103170025Y-96570000D01*
X103068801Y-96584554D01*
X102954000Y-96636981D01*
X102954000Y-95589364D01*
X102953999Y-95589364D01*
X102740513Y-95646567D01*
X102740507Y-95646570D01*
X102526422Y-95746399D01*
X102526420Y-95746400D01*
X102332926Y-95881886D01*
X102332920Y-95881891D01*
X102165891Y-96048920D01*
X102165886Y-96048926D01*
X102030400Y-96242420D01*
X102030399Y-96242422D01*
X101930570Y-96456507D01*
X101930566Y-96456516D01*
X101869432Y-96684673D01*
X101869430Y-96684683D01*
X101859779Y-96795000D01*
X102800031Y-96795000D01*
X102767481Y-96845649D01*
X102729000Y-96976705D01*
X102729000Y-97113295D01*
X102767481Y-97244351D01*
X102800031Y-97295000D01*
X101859779Y-97295000D01*
X100630500Y-97295000D01*
X100630500Y-96360478D01*
X100630499Y-96360476D01*
X100617963Y-96249220D01*
X100594779Y-96043449D01*
X100523787Y-95732410D01*
X100418415Y-95431275D01*
X100418412Y-95431270D01*
X100418410Y-95431263D01*
X100279993Y-95143836D01*
X100211567Y-95034937D01*
X100110251Y-94873694D01*
X99911334Y-94624260D01*
X99685740Y-94398666D01*
X99436306Y-94199749D01*
X99166169Y-94030010D01*
X99166170Y-94030010D01*
X99166163Y-94030006D01*
X98878736Y-93891589D01*
X98878728Y-93891586D01*
X98577601Y-93786216D01*
X98577589Y-93786212D01*
X98266554Y-93715221D01*
X98266538Y-93715219D01*
X97949523Y-93679500D01*
X97949519Y-93679500D01*
X97846173Y-93679500D01*
X91441878Y-93679500D01*
X91438134Y-93679387D01*
X91173804Y-93663398D01*
X91166365Y-93662494D01*
X90907739Y-93615098D01*
X90900463Y-93613305D01*
X90733680Y-93561334D01*
X90649447Y-93535086D01*
X90642445Y-93532430D01*
X90402674Y-93424519D01*
X90396038Y-93421036D01*
X90171030Y-93285013D01*
X90164863Y-93280756D01*
X89957888Y-93118602D01*
X89952287Y-93113640D01*
X89766358Y-92927711D01*
X89761397Y-92922111D01*
X89599243Y-92715136D01*
X89594986Y-92708969D01*
X89537596Y-92614035D01*
X89458960Y-92483956D01*
X89455480Y-92477325D01*
X89347569Y-92237554D01*
X89344916Y-92230561D01*
X89266692Y-91979530D01*
X89264901Y-91972260D01*
X89217505Y-91713634D01*
X89216601Y-91706195D01*
X89215621Y-91690000D01*
X89200613Y-91441866D01*
X89200500Y-91438122D01*
X89200500Y-74557844D01*
X90090000Y-74557844D01*
X90096401Y-74617372D01*
X90096403Y-74617379D01*
X90146645Y-74752086D01*
X90146649Y-74752093D01*
X90232809Y-74867187D01*
X90232812Y-74867190D01*
X90347906Y-74953350D01*
X90347913Y-74953354D01*
X90479986Y-75002614D01*
X90535920Y-75044485D01*
X90560337Y-75109949D01*
X90545486Y-75178222D01*
X90524335Y-75206477D01*
X90401886Y-75328926D01*
X90266400Y-75522420D01*
X90266399Y-75522422D01*
X90166570Y-75736507D01*
X90166567Y-75736513D01*
X90109364Y-75949999D01*
X90109364Y-75950000D01*
X91006314Y-75950000D01*
X90980507Y-75990156D01*
X90940000Y-76128111D01*
X90940000Y-76271889D01*
X90980507Y-76409844D01*
X91006314Y-76450000D01*
X90109364Y-76450000D01*
X90166567Y-76663486D01*
X90166570Y-76663492D01*
X90266399Y-76877578D01*
X90401894Y-77071082D01*
X90568917Y-77238105D01*
X90755031Y-77368425D01*
X90798656Y-77423003D01*
X90805848Y-77492501D01*
X90774326Y-77554856D01*
X90755031Y-77571575D01*
X90568922Y-77701890D01*
X90568920Y-77701891D01*
X90401891Y-77868920D01*
X90401886Y-77868926D01*
X90266400Y-78062420D01*
X90266399Y-78062422D01*
X90166570Y-78276507D01*
X90166567Y-78276513D01*
X90109364Y-78489999D01*
X90109364Y-78490000D01*
X91006314Y-78490000D01*
X90980507Y-78530156D01*
X90940000Y-78668111D01*
X90940000Y-78811889D01*
X90980507Y-78949844D01*
X91006314Y-78990000D01*
X90109364Y-78990000D01*
X90166567Y-79203486D01*
X90166570Y-79203492D01*
X90266399Y-79417578D01*
X90401894Y-79611082D01*
X90568917Y-79778105D01*
X90755031Y-79908425D01*
X90798656Y-79963003D01*
X90805848Y-80032501D01*
X90774326Y-80094856D01*
X90755031Y-80111575D01*
X90568922Y-80241890D01*
X90568920Y-80241891D01*
X90401891Y-80408920D01*
X90401886Y-80408926D01*
X90266400Y-80602420D01*
X90266399Y-80602422D01*
X90166570Y-80816507D01*
X90166567Y-80816513D01*
X90109364Y-81029999D01*
X90109364Y-81030000D01*
X91006314Y-81030000D01*
X90980507Y-81070156D01*
X90940000Y-81208111D01*
X90940000Y-81351889D01*
X90980507Y-81489844D01*
X91006314Y-81530000D01*
X90109364Y-81530000D01*
X90166567Y-81743486D01*
X90166570Y-81743492D01*
X90266399Y-81957578D01*
X90401894Y-82151082D01*
X90568917Y-82318105D01*
X90755031Y-82448425D01*
X90798656Y-82503003D01*
X90805848Y-82572501D01*
X90774326Y-82634856D01*
X90755031Y-82651575D01*
X90568922Y-82781890D01*
X90568920Y-82781891D01*
X90401891Y-82948920D01*
X90401886Y-82948926D01*
X90266400Y-83142420D01*
X90266399Y-83142422D01*
X90166570Y-83356507D01*
X90166567Y-83356513D01*
X90109364Y-83569999D01*
X90109364Y-83570000D01*
X91006314Y-83570000D01*
X90980507Y-83610156D01*
X90940000Y-83748111D01*
X90940000Y-83891889D01*
X90980507Y-84029844D01*
X91006314Y-84070000D01*
X90109364Y-84070000D01*
X90166567Y-84283486D01*
X90166570Y-84283492D01*
X90266399Y-84497578D01*
X90401894Y-84691082D01*
X90568917Y-84858105D01*
X90755031Y-84988425D01*
X90798656Y-85043003D01*
X90805848Y-85112501D01*
X90774326Y-85174856D01*
X90755031Y-85191575D01*
X90568922Y-85321890D01*
X90568920Y-85321891D01*
X90401891Y-85488920D01*
X90401886Y-85488926D01*
X90266400Y-85682420D01*
X90266399Y-85682422D01*
X90166570Y-85896507D01*
X90166567Y-85896513D01*
X90109364Y-86109999D01*
X90109364Y-86110000D01*
X91006314Y-86110000D01*
X90980507Y-86150156D01*
X90940000Y-86288111D01*
X90940000Y-86431889D01*
X90980507Y-86569844D01*
X91006314Y-86610000D01*
X90109364Y-86610000D01*
X90166567Y-86823486D01*
X90166570Y-86823492D01*
X90266399Y-87037578D01*
X90401894Y-87231082D01*
X90568917Y-87398105D01*
X90755031Y-87528425D01*
X90798656Y-87583003D01*
X90805848Y-87652501D01*
X90774326Y-87714856D01*
X90755031Y-87731575D01*
X90568922Y-87861890D01*
X90568920Y-87861891D01*
X90401891Y-88028920D01*
X90401886Y-88028926D01*
X90266400Y-88222420D01*
X90266399Y-88222422D01*
X90166570Y-88436507D01*
X90166567Y-88436513D01*
X90109364Y-88649999D01*
X90109364Y-88650000D01*
X91006314Y-88650000D01*
X90980507Y-88690156D01*
X90940000Y-88828111D01*
X90940000Y-88971889D01*
X90980507Y-89109844D01*
X91006314Y-89150000D01*
X90109364Y-89150000D01*
X90166567Y-89363486D01*
X90166570Y-89363492D01*
X90266399Y-89577578D01*
X90401894Y-89771082D01*
X90568917Y-89938105D01*
X90755031Y-90068425D01*
X90798656Y-90123003D01*
X90805848Y-90192501D01*
X90774326Y-90254856D01*
X90755031Y-90271575D01*
X90568922Y-90401890D01*
X90568920Y-90401891D01*
X90401891Y-90568920D01*
X90401886Y-90568926D01*
X90266400Y-90762420D01*
X90266399Y-90762422D01*
X90166570Y-90976507D01*
X90166567Y-90976513D01*
X90109364Y-91189999D01*
X90109364Y-91190000D01*
X91006314Y-91190000D01*
X90980507Y-91230156D01*
X90940000Y-91368111D01*
X90940000Y-91511889D01*
X90980507Y-91649844D01*
X91006314Y-91690000D01*
X90109364Y-91690000D01*
X90166567Y-91903486D01*
X90166570Y-91903492D01*
X90266399Y-92117578D01*
X90401894Y-92311082D01*
X90568917Y-92478105D01*
X90762421Y-92613600D01*
X90976507Y-92713429D01*
X90976516Y-92713433D01*
X91190000Y-92770634D01*
X91190000Y-91875501D01*
X91297685Y-91924680D01*
X91404237Y-91940000D01*
X91475763Y-91940000D01*
X91582315Y-91924680D01*
X91690000Y-91875501D01*
X91690000Y-92770633D01*
X91903483Y-92713433D01*
X91903492Y-92713429D01*
X92117578Y-92613600D01*
X92311082Y-92478105D01*
X92478105Y-92311082D01*
X92608119Y-92125405D01*
X92662696Y-92081781D01*
X92732195Y-92074588D01*
X92794549Y-92106110D01*
X92811269Y-92125405D01*
X92941505Y-92311401D01*
X93108599Y-92478495D01*
X93180335Y-92528725D01*
X93302165Y-92614032D01*
X93302167Y-92614033D01*
X93302170Y-92614035D01*
X93516337Y-92713903D01*
X93516343Y-92713904D01*
X93516344Y-92713905D01*
X93571285Y-92728626D01*
X93744592Y-92775063D01*
X93932918Y-92791539D01*
X93979999Y-92795659D01*
X93980000Y-92795659D01*
X93980001Y-92795659D01*
X94019234Y-92792226D01*
X94215408Y-92775063D01*
X94443663Y-92713903D01*
X94657830Y-92614035D01*
X94851401Y-92478495D01*
X95018495Y-92311401D01*
X95148424Y-92125842D01*
X95203002Y-92082217D01*
X95272500Y-92075023D01*
X95334855Y-92106546D01*
X95351575Y-92125842D01*
X95481500Y-92311395D01*
X95481505Y-92311401D01*
X95648599Y-92478495D01*
X95720335Y-92528725D01*
X95842165Y-92614032D01*
X95842167Y-92614033D01*
X95842170Y-92614035D01*
X96056337Y-92713903D01*
X96056343Y-92713904D01*
X96056344Y-92713905D01*
X96111285Y-92728626D01*
X96284592Y-92775063D01*
X96472918Y-92791539D01*
X96519999Y-92795659D01*
X96520000Y-92795659D01*
X96520001Y-92795659D01*
X96559234Y-92792226D01*
X96755408Y-92775063D01*
X96983663Y-92713903D01*
X97197830Y-92614035D01*
X97391401Y-92478495D01*
X97558495Y-92311401D01*
X97694035Y-92117830D01*
X97793903Y-91903663D01*
X97855063Y-91675408D01*
X97875659Y-91440000D01*
X97855063Y-91204592D01*
X97793903Y-90976337D01*
X97694035Y-90762171D01*
X97688731Y-90754595D01*
X97558494Y-90568597D01*
X97391402Y-90401506D01*
X97391401Y-90401505D01*
X97226153Y-90285797D01*
X97205841Y-90271574D01*
X97162216Y-90216997D01*
X97155024Y-90147498D01*
X97186546Y-90085144D01*
X97205836Y-90068428D01*
X97391401Y-89938495D01*
X97558495Y-89771401D01*
X97637899Y-89658000D01*
X101859779Y-89658000D01*
X101869430Y-89768316D01*
X101869432Y-89768326D01*
X101930566Y-89996483D01*
X101930570Y-89996492D01*
X102030399Y-90210577D01*
X102030400Y-90210579D01*
X102165886Y-90404073D01*
X102165891Y-90404079D01*
X102332917Y-90571105D01*
X102526421Y-90706600D01*
X102740507Y-90806429D01*
X102740516Y-90806433D01*
X102954000Y-90863634D01*
X102954000Y-89816018D01*
X103068801Y-89868446D01*
X103170025Y-89883000D01*
X103237975Y-89883000D01*
X103339199Y-89868446D01*
X103453999Y-89816018D01*
X103453999Y-90863633D01*
X103667483Y-90806433D01*
X103667492Y-90806429D01*
X103881577Y-90706600D01*
X103881579Y-90706599D01*
X104075073Y-90571113D01*
X104075079Y-90571108D01*
X104242108Y-90404079D01*
X104242113Y-90404073D01*
X104352119Y-90246967D01*
X104406695Y-90203342D01*
X104476194Y-90196148D01*
X104538549Y-90227670D01*
X104555269Y-90246967D01*
X104665505Y-90404402D01*
X104783900Y-90522796D01*
X104832599Y-90571495D01*
X104875675Y-90601657D01*
X105026165Y-90707032D01*
X105026167Y-90707033D01*
X105026170Y-90707035D01*
X105240337Y-90806903D01*
X105240343Y-90806904D01*
X105240344Y-90806905D01*
X105281050Y-90817812D01*
X105468592Y-90868063D01*
X105645034Y-90883500D01*
X105703999Y-90888659D01*
X105704000Y-90888659D01*
X105704001Y-90888659D01*
X105762966Y-90883500D01*
X105939408Y-90868063D01*
X106167663Y-90806903D01*
X106381829Y-90707035D01*
X106575401Y-90571495D01*
X106742495Y-90404401D01*
X106852426Y-90247401D01*
X106907001Y-90203778D01*
X106976500Y-90196584D01*
X107038855Y-90228106D01*
X107055571Y-90247398D01*
X107072499Y-90271574D01*
X107165506Y-90404403D01*
X107283900Y-90522796D01*
X107332599Y-90571495D01*
X107375675Y-90601657D01*
X107526165Y-90707032D01*
X107526167Y-90707033D01*
X107526170Y-90707035D01*
X107740337Y-90806903D01*
X107740343Y-90806904D01*
X107740344Y-90806905D01*
X107781050Y-90817812D01*
X107968592Y-90868063D01*
X108145034Y-90883500D01*
X108203999Y-90888659D01*
X108204000Y-90888659D01*
X108204001Y-90888659D01*
X108262966Y-90883500D01*
X108439408Y-90868063D01*
X108667663Y-90806903D01*
X108881829Y-90707035D01*
X109075401Y-90571495D01*
X109242495Y-90404401D01*
X109352426Y-90247401D01*
X109407001Y-90203778D01*
X109476500Y-90196584D01*
X109538855Y-90228106D01*
X109555571Y-90247398D01*
X109572499Y-90271574D01*
X109665506Y-90404403D01*
X109783900Y-90522796D01*
X109832599Y-90571495D01*
X109875675Y-90601657D01*
X110026165Y-90707032D01*
X110026167Y-90707033D01*
X110026170Y-90707035D01*
X110240337Y-90806903D01*
X110240343Y-90806904D01*
X110240344Y-90806905D01*
X110281050Y-90817812D01*
X110468592Y-90868063D01*
X110645034Y-90883500D01*
X110703999Y-90888659D01*
X110704000Y-90888659D01*
X110704001Y-90888659D01*
X110762966Y-90883500D01*
X110939408Y-90868063D01*
X111167663Y-90806903D01*
X111381829Y-90707035D01*
X111575401Y-90571495D01*
X111722602Y-90424293D01*
X111783924Y-90390810D01*
X111853615Y-90395794D01*
X111909549Y-90437665D01*
X111915821Y-90446879D01*
X111919186Y-90452334D01*
X112011288Y-90601656D01*
X112135344Y-90725712D01*
X112284666Y-90817814D01*
X112451203Y-90872999D01*
X112553991Y-90883500D01*
X113854008Y-90883499D01*
X113956797Y-90872999D01*
X114123334Y-90817814D01*
X114272656Y-90725712D01*
X114396712Y-90601656D01*
X114488814Y-90452334D01*
X114499528Y-90420001D01*
X118069500Y-90420001D01*
X118069501Y-90420018D01*
X118080000Y-90522796D01*
X118080001Y-90522799D01*
X118125894Y-90661294D01*
X118135186Y-90689334D01*
X118227288Y-90838656D01*
X118351344Y-90962712D01*
X118500666Y-91054814D01*
X118667203Y-91109999D01*
X118769991Y-91120500D01*
X120070008Y-91120499D01*
X120172797Y-91109999D01*
X120339334Y-91054814D01*
X120488656Y-90962712D01*
X120612712Y-90838656D01*
X120704814Y-90689334D01*
X120704814Y-90689331D01*
X120708178Y-90683879D01*
X120760126Y-90637154D01*
X120829088Y-90625931D01*
X120893170Y-90653774D01*
X120901398Y-90661294D01*
X121048599Y-90808495D01*
X121091675Y-90838657D01*
X121242165Y-90944032D01*
X121242167Y-90944033D01*
X121242170Y-90944035D01*
X121456337Y-91043903D01*
X121684592Y-91105063D01*
X121861034Y-91120500D01*
X121919999Y-91125659D01*
X121920000Y-91125659D01*
X121920001Y-91125659D01*
X121978966Y-91120500D01*
X122155408Y-91105063D01*
X122383663Y-91043903D01*
X122597829Y-90944035D01*
X122791401Y-90808495D01*
X122958495Y-90641401D01*
X123068732Y-90483965D01*
X123123306Y-90440342D01*
X123192805Y-90433148D01*
X123255159Y-90464670D01*
X123271880Y-90483967D01*
X123381886Y-90641073D01*
X123381891Y-90641079D01*
X123548917Y-90808105D01*
X123742421Y-90943600D01*
X123956507Y-91043429D01*
X123956516Y-91043433D01*
X124170000Y-91100634D01*
X124170000Y-90053018D01*
X124284801Y-90105446D01*
X124386025Y-90120000D01*
X124453975Y-90120000D01*
X124555199Y-90105446D01*
X124670000Y-90053018D01*
X124670000Y-91100633D01*
X124883483Y-91043433D01*
X124883492Y-91043429D01*
X125097577Y-90943600D01*
X125097579Y-90943599D01*
X125291073Y-90808113D01*
X125291079Y-90808108D01*
X125458108Y-90641079D01*
X125458113Y-90641073D01*
X125593599Y-90447579D01*
X125593600Y-90447577D01*
X125693429Y-90233492D01*
X125693433Y-90233483D01*
X125754567Y-90005326D01*
X125754569Y-90005316D01*
X125764221Y-89895000D01*
X124823969Y-89895000D01*
X124856519Y-89844351D01*
X124895000Y-89713295D01*
X124895000Y-89576705D01*
X124856519Y-89445649D01*
X124823969Y-89395000D01*
X125764221Y-89395000D01*
X125754569Y-89284683D01*
X125754567Y-89284673D01*
X125693433Y-89056516D01*
X125693429Y-89056507D01*
X125593600Y-88842422D01*
X125593599Y-88842420D01*
X125458113Y-88648926D01*
X125458108Y-88648920D01*
X125291082Y-88481894D01*
X125097578Y-88346399D01*
X124883492Y-88246570D01*
X124883486Y-88246567D01*
X124670000Y-88189364D01*
X124670000Y-89236981D01*
X124555199Y-89184554D01*
X124453975Y-89170000D01*
X124386025Y-89170000D01*
X124284801Y-89184554D01*
X124170000Y-89236981D01*
X124170000Y-88189364D01*
X124169999Y-88189364D01*
X123956513Y-88246567D01*
X123956507Y-88246570D01*
X123742422Y-88346399D01*
X123742420Y-88346400D01*
X123548926Y-88481886D01*
X123548920Y-88481891D01*
X123381891Y-88648920D01*
X123381890Y-88648922D01*
X123271880Y-88806032D01*
X123217303Y-88849657D01*
X123147804Y-88856849D01*
X123085450Y-88825327D01*
X123068730Y-88806031D01*
X122958494Y-88648597D01*
X122791402Y-88481506D01*
X122791395Y-88481501D01*
X122597834Y-88345967D01*
X122597830Y-88345965D01*
X122557777Y-88327288D01*
X122383663Y-88246097D01*
X122383659Y-88246096D01*
X122383655Y-88246094D01*
X122155413Y-88184938D01*
X122155403Y-88184936D01*
X121920001Y-88164341D01*
X121919999Y-88164341D01*
X121684596Y-88184936D01*
X121684586Y-88184938D01*
X121456344Y-88246094D01*
X121456335Y-88246098D01*
X121242171Y-88345964D01*
X121242169Y-88345965D01*
X121048597Y-88481505D01*
X120901398Y-88628705D01*
X120840075Y-88662190D01*
X120770383Y-88657206D01*
X120714450Y-88615334D01*
X120708178Y-88606120D01*
X120612712Y-88451344D01*
X120488657Y-88327289D01*
X120488656Y-88327289D01*
X120488656Y-88327288D01*
X120357786Y-88246567D01*
X120339336Y-88235187D01*
X120339331Y-88235185D01*
X120334107Y-88233454D01*
X120172797Y-88180001D01*
X120172795Y-88180000D01*
X120070010Y-88169500D01*
X118769998Y-88169500D01*
X118769981Y-88169501D01*
X118667203Y-88180000D01*
X118667200Y-88180001D01*
X118500668Y-88235185D01*
X118500663Y-88235187D01*
X118351342Y-88327289D01*
X118227289Y-88451342D01*
X118135187Y-88600663D01*
X118135185Y-88600668D01*
X118118838Y-88650000D01*
X118080001Y-88767203D01*
X118080001Y-88767204D01*
X118080000Y-88767204D01*
X118069500Y-88869983D01*
X118069500Y-90420001D01*
X114499528Y-90420001D01*
X114543999Y-90285797D01*
X114554500Y-90183009D01*
X114554499Y-88632992D01*
X114553156Y-88619849D01*
X114543999Y-88530203D01*
X114543998Y-88530200D01*
X114525722Y-88475048D01*
X114488814Y-88363666D01*
X114396712Y-88214344D01*
X114272656Y-88090288D01*
X114141786Y-88009567D01*
X114123336Y-87998187D01*
X114123331Y-87998185D01*
X114121862Y-87997698D01*
X113956797Y-87943001D01*
X113956795Y-87943000D01*
X113854010Y-87932500D01*
X112553998Y-87932500D01*
X112553981Y-87932501D01*
X112451203Y-87943000D01*
X112451200Y-87943001D01*
X112284668Y-87998185D01*
X112284663Y-87998187D01*
X112135342Y-88090289D01*
X112011289Y-88214342D01*
X111915821Y-88369121D01*
X111863873Y-88415845D01*
X111794910Y-88427068D01*
X111730828Y-88399224D01*
X111722601Y-88391705D01*
X111575402Y-88244506D01*
X111575395Y-88244501D01*
X111562093Y-88235187D01*
X111490331Y-88184938D01*
X111381834Y-88108967D01*
X111381830Y-88108965D01*
X111341777Y-88090288D01*
X111167663Y-88009097D01*
X111167659Y-88009096D01*
X111167655Y-88009094D01*
X110939413Y-87947938D01*
X110939403Y-87947936D01*
X110704001Y-87927341D01*
X110703999Y-87927341D01*
X110468596Y-87947936D01*
X110468586Y-87947938D01*
X110240344Y-88009094D01*
X110240335Y-88009098D01*
X110026171Y-88108964D01*
X110026169Y-88108965D01*
X109832597Y-88244505D01*
X109665505Y-88411597D01*
X109555575Y-88568595D01*
X109500998Y-88612220D01*
X109431500Y-88619414D01*
X109369145Y-88587891D01*
X109352425Y-88568595D01*
X109242494Y-88411597D01*
X109075402Y-88244506D01*
X109075395Y-88244501D01*
X109062093Y-88235187D01*
X108990331Y-88184938D01*
X108881834Y-88108967D01*
X108881830Y-88108965D01*
X108841777Y-88090288D01*
X108667663Y-88009097D01*
X108667659Y-88009096D01*
X108667655Y-88009094D01*
X108439413Y-87947938D01*
X108439403Y-87947936D01*
X108204001Y-87927341D01*
X108203999Y-87927341D01*
X107968596Y-87947936D01*
X107968586Y-87947938D01*
X107740344Y-88009094D01*
X107740335Y-88009098D01*
X107526171Y-88108964D01*
X107526169Y-88108965D01*
X107332597Y-88244505D01*
X107165505Y-88411597D01*
X107055575Y-88568595D01*
X107000998Y-88612220D01*
X106931500Y-88619414D01*
X106869145Y-88587891D01*
X106852425Y-88568595D01*
X106742494Y-88411597D01*
X106575402Y-88244506D01*
X106575395Y-88244501D01*
X106562093Y-88235187D01*
X106490331Y-88184938D01*
X106381834Y-88108967D01*
X106381830Y-88108965D01*
X106341777Y-88090288D01*
X106167663Y-88009097D01*
X106167659Y-88009096D01*
X106167655Y-88009094D01*
X105939413Y-87947938D01*
X105939403Y-87947936D01*
X105704001Y-87927341D01*
X105703999Y-87927341D01*
X105468596Y-87947936D01*
X105468586Y-87947938D01*
X105240344Y-88009094D01*
X105240335Y-88009098D01*
X105026171Y-88108964D01*
X105026169Y-88108965D01*
X104832597Y-88244505D01*
X104665508Y-88411594D01*
X104555269Y-88569032D01*
X104500692Y-88612656D01*
X104431193Y-88619849D01*
X104368839Y-88588327D01*
X104352119Y-88569031D01*
X104242113Y-88411926D01*
X104242108Y-88411920D01*
X104075082Y-88244894D01*
X103881578Y-88109399D01*
X103667492Y-88009570D01*
X103667486Y-88009567D01*
X103453999Y-87952364D01*
X103453999Y-88999981D01*
X103339199Y-88947554D01*
X103237975Y-88933000D01*
X103170025Y-88933000D01*
X103068801Y-88947554D01*
X102954000Y-88999981D01*
X102954000Y-87952364D01*
X102953999Y-87952364D01*
X102740513Y-88009567D01*
X102740507Y-88009570D01*
X102526422Y-88109399D01*
X102526420Y-88109400D01*
X102332926Y-88244886D01*
X102332920Y-88244891D01*
X102165891Y-88411920D01*
X102165886Y-88411926D01*
X102030400Y-88605420D01*
X102030399Y-88605422D01*
X101930570Y-88819507D01*
X101930566Y-88819516D01*
X101869432Y-89047673D01*
X101869430Y-89047683D01*
X101859779Y-89158000D01*
X102800031Y-89158000D01*
X102767481Y-89208649D01*
X102729000Y-89339705D01*
X102729000Y-89476295D01*
X102767481Y-89607351D01*
X102800031Y-89658000D01*
X101859779Y-89658000D01*
X97637899Y-89658000D01*
X97694035Y-89577830D01*
X97793903Y-89363663D01*
X97855063Y-89135408D01*
X97875659Y-88900000D01*
X97873033Y-88869991D01*
X97870621Y-88842420D01*
X97855063Y-88664592D01*
X97793903Y-88436337D01*
X97694035Y-88222171D01*
X97688731Y-88214595D01*
X97558494Y-88028597D01*
X97391402Y-87861506D01*
X97391401Y-87861505D01*
X97205842Y-87731575D01*
X97205841Y-87731574D01*
X97162216Y-87676997D01*
X97155024Y-87607498D01*
X97186546Y-87545144D01*
X97205836Y-87528428D01*
X97391401Y-87398495D01*
X97558495Y-87231401D01*
X97694035Y-87037830D01*
X97793903Y-86823663D01*
X97855063Y-86595408D01*
X97875659Y-86360000D01*
X97855063Y-86124592D01*
X97793903Y-85896337D01*
X97694035Y-85682171D01*
X97688731Y-85674595D01*
X97558494Y-85488597D01*
X97391402Y-85321506D01*
X97391401Y-85321505D01*
X97205842Y-85191575D01*
X97205841Y-85191574D01*
X97162216Y-85136997D01*
X97155024Y-85067498D01*
X97186546Y-85005144D01*
X97205836Y-84988428D01*
X97391401Y-84858495D01*
X97558495Y-84691401D01*
X97694035Y-84497830D01*
X97793903Y-84283663D01*
X97855063Y-84055408D01*
X97875659Y-83820000D01*
X97855063Y-83584592D01*
X97793903Y-83356337D01*
X97694035Y-83142171D01*
X97688731Y-83134595D01*
X97558494Y-82948597D01*
X97391402Y-82781506D01*
X97391401Y-82781505D01*
X97205842Y-82651575D01*
X97205841Y-82651574D01*
X97162216Y-82596997D01*
X97155024Y-82527498D01*
X97186546Y-82465144D01*
X97205836Y-82448428D01*
X97391401Y-82318495D01*
X97558495Y-82151401D01*
X97608490Y-82080001D01*
X109139500Y-82080001D01*
X109139501Y-82080018D01*
X109150000Y-82182796D01*
X109150001Y-82182799D01*
X109170944Y-82246000D01*
X109205186Y-82349334D01*
X109297288Y-82498656D01*
X109421344Y-82622712D01*
X109570666Y-82714814D01*
X109737203Y-82769999D01*
X109839991Y-82780500D01*
X111140008Y-82780499D01*
X111242797Y-82769999D01*
X111409334Y-82714814D01*
X111558656Y-82622712D01*
X111682712Y-82498656D01*
X111774814Y-82349334D01*
X111774814Y-82349333D01*
X111778448Y-82343442D01*
X111830396Y-82296717D01*
X111899358Y-82285494D01*
X111963441Y-82313337D01*
X111971668Y-82320856D01*
X112118921Y-82468108D01*
X112312421Y-82603600D01*
X112526507Y-82703429D01*
X112526516Y-82703433D01*
X112739998Y-82760635D01*
X112739999Y-82760634D01*
X112739999Y-81715501D01*
X112847685Y-81764680D01*
X112954237Y-81780000D01*
X113025763Y-81780000D01*
X113132315Y-81764680D01*
X113240000Y-81715501D01*
X113240000Y-82760633D01*
X113453483Y-82703433D01*
X113453492Y-82703429D01*
X113667577Y-82603600D01*
X113667579Y-82603599D01*
X113749837Y-82546001D01*
X118069500Y-82546001D01*
X118069501Y-82546018D01*
X118080000Y-82648796D01*
X118080001Y-82648799D01*
X118123642Y-82780498D01*
X118135186Y-82815334D01*
X118227288Y-82964656D01*
X118351344Y-83088712D01*
X118500666Y-83180814D01*
X118667203Y-83235999D01*
X118769991Y-83246500D01*
X120070008Y-83246499D01*
X120172797Y-83235999D01*
X120339334Y-83180814D01*
X120488656Y-83088712D01*
X120612712Y-82964656D01*
X120704814Y-82815334D01*
X120704814Y-82815331D01*
X120708178Y-82809879D01*
X120760126Y-82763154D01*
X120829088Y-82751931D01*
X120893170Y-82779774D01*
X120901398Y-82787294D01*
X121048599Y-82934495D01*
X121091675Y-82964657D01*
X121242165Y-83070032D01*
X121242167Y-83070033D01*
X121242170Y-83070035D01*
X121456337Y-83169903D01*
X121456343Y-83169904D01*
X121456344Y-83169905D01*
X121487373Y-83178219D01*
X121684592Y-83231063D01*
X121861034Y-83246500D01*
X121919999Y-83251659D01*
X121920000Y-83251659D01*
X121920001Y-83251659D01*
X121978966Y-83246500D01*
X122155408Y-83231063D01*
X122383663Y-83169903D01*
X122597829Y-83070035D01*
X122791401Y-82934495D01*
X122958495Y-82767401D01*
X123068732Y-82609965D01*
X123123306Y-82566342D01*
X123192805Y-82559148D01*
X123255159Y-82590670D01*
X123271880Y-82609967D01*
X123381886Y-82767073D01*
X123381891Y-82767079D01*
X123548917Y-82934105D01*
X123742421Y-83069600D01*
X123956507Y-83169429D01*
X123956516Y-83169433D01*
X124170000Y-83226634D01*
X124170000Y-82179018D01*
X124284801Y-82231446D01*
X124386025Y-82246000D01*
X124453975Y-82246000D01*
X124555199Y-82231446D01*
X124670000Y-82179018D01*
X124670000Y-83226633D01*
X124883483Y-83169433D01*
X124883492Y-83169429D01*
X125097577Y-83069600D01*
X125097579Y-83069599D01*
X125291073Y-82934113D01*
X125291079Y-82934108D01*
X125458108Y-82767079D01*
X125458113Y-82767073D01*
X125593599Y-82573579D01*
X125593600Y-82573577D01*
X125693429Y-82359492D01*
X125693433Y-82359483D01*
X125754567Y-82131326D01*
X125754569Y-82131316D01*
X125764221Y-82021000D01*
X124823969Y-82021000D01*
X124856519Y-81970351D01*
X124895000Y-81839295D01*
X124895000Y-81702705D01*
X124856519Y-81571649D01*
X124823969Y-81521000D01*
X125764221Y-81521000D01*
X125754569Y-81410683D01*
X125754567Y-81410673D01*
X125693433Y-81182516D01*
X125693429Y-81182507D01*
X125593600Y-80968422D01*
X125593599Y-80968420D01*
X125458113Y-80774926D01*
X125458108Y-80774920D01*
X125291082Y-80607894D01*
X125097578Y-80472399D01*
X124883492Y-80372570D01*
X124883486Y-80372567D01*
X124670000Y-80315364D01*
X124670000Y-81362981D01*
X124555199Y-81310554D01*
X124453975Y-81296000D01*
X124386025Y-81296000D01*
X124284801Y-81310554D01*
X124170000Y-81362981D01*
X124170000Y-80315364D01*
X124169999Y-80315364D01*
X123956513Y-80372567D01*
X123956507Y-80372570D01*
X123742422Y-80472399D01*
X123742420Y-80472400D01*
X123548926Y-80607886D01*
X123548920Y-80607891D01*
X123381891Y-80774920D01*
X123381890Y-80774922D01*
X123271880Y-80932032D01*
X123217303Y-80975657D01*
X123147804Y-80982849D01*
X123085450Y-80951327D01*
X123068730Y-80932031D01*
X122958494Y-80774597D01*
X122791402Y-80607506D01*
X122791395Y-80607501D01*
X122784141Y-80602422D01*
X122748324Y-80577342D01*
X122597834Y-80471967D01*
X122597830Y-80471965D01*
X122555916Y-80452420D01*
X122383663Y-80372097D01*
X122383659Y-80372096D01*
X122383655Y-80372094D01*
X122155413Y-80310938D01*
X122155403Y-80310936D01*
X121920001Y-80290341D01*
X121919999Y-80290341D01*
X121684596Y-80310936D01*
X121684586Y-80310938D01*
X121456344Y-80372094D01*
X121456335Y-80372098D01*
X121242171Y-80471964D01*
X121242169Y-80471965D01*
X121048597Y-80607505D01*
X120901398Y-80754705D01*
X120840075Y-80788190D01*
X120770383Y-80783206D01*
X120714450Y-80741334D01*
X120708178Y-80732120D01*
X120654427Y-80644976D01*
X120612712Y-80577344D01*
X120488656Y-80453288D01*
X120395888Y-80396069D01*
X120339336Y-80361187D01*
X120339331Y-80361185D01*
X120337082Y-80360439D01*
X120255495Y-80333404D01*
X120198051Y-80293632D01*
X120171228Y-80229116D01*
X120170500Y-80215699D01*
X120170500Y-75723300D01*
X120190185Y-75656261D01*
X120242989Y-75610506D01*
X120255482Y-75605599D01*
X120339334Y-75577814D01*
X120488656Y-75485712D01*
X120612712Y-75361656D01*
X120704814Y-75212334D01*
X120704814Y-75212331D01*
X120708178Y-75206879D01*
X120760126Y-75160154D01*
X120829088Y-75148931D01*
X120893170Y-75176774D01*
X120901398Y-75184294D01*
X121048599Y-75331495D01*
X121091675Y-75361657D01*
X121242165Y-75467032D01*
X121242167Y-75467033D01*
X121242170Y-75467035D01*
X121456337Y-75566903D01*
X121684592Y-75628063D01*
X121872918Y-75644539D01*
X121919999Y-75648659D01*
X121920000Y-75648659D01*
X121920001Y-75648659D01*
X121959234Y-75645226D01*
X122155408Y-75628063D01*
X122383663Y-75566903D01*
X122597829Y-75467035D01*
X122791401Y-75331495D01*
X122958495Y-75164401D01*
X123068732Y-75006965D01*
X123123306Y-74963342D01*
X123192805Y-74956148D01*
X123255159Y-74987670D01*
X123271880Y-75006967D01*
X123381886Y-75164073D01*
X123381891Y-75164079D01*
X123548917Y-75331105D01*
X123742421Y-75466600D01*
X123956507Y-75566429D01*
X123956516Y-75566433D01*
X124170000Y-75623634D01*
X124170000Y-74576018D01*
X124284801Y-74628446D01*
X124386025Y-74643000D01*
X124453975Y-74643000D01*
X124555199Y-74628446D01*
X124670000Y-74576018D01*
X124670000Y-75623633D01*
X124883483Y-75566433D01*
X124883492Y-75566429D01*
X125097577Y-75466600D01*
X125097579Y-75466599D01*
X125291073Y-75331113D01*
X125291079Y-75331108D01*
X125458108Y-75164079D01*
X125458113Y-75164073D01*
X125593599Y-74970579D01*
X125593600Y-74970577D01*
X125693429Y-74756492D01*
X125693433Y-74756483D01*
X125754567Y-74528326D01*
X125754569Y-74528316D01*
X125764221Y-74418000D01*
X124823969Y-74418000D01*
X124856519Y-74367351D01*
X124895000Y-74236295D01*
X124895000Y-74099705D01*
X124856519Y-73968649D01*
X124823969Y-73918000D01*
X125764221Y-73918000D01*
X125754569Y-73807683D01*
X125754567Y-73807673D01*
X125693433Y-73579516D01*
X125693429Y-73579507D01*
X125593600Y-73365422D01*
X125593599Y-73365420D01*
X125458113Y-73171926D01*
X125458108Y-73171920D01*
X125291082Y-73004894D01*
X125097578Y-72869399D01*
X124883492Y-72769570D01*
X124883486Y-72769567D01*
X124670000Y-72712364D01*
X124670000Y-73759981D01*
X124555199Y-73707554D01*
X124453975Y-73693000D01*
X124386025Y-73693000D01*
X124284801Y-73707554D01*
X124170000Y-73759981D01*
X124170000Y-72712364D01*
X124169999Y-72712364D01*
X123956513Y-72769567D01*
X123956507Y-72769570D01*
X123742422Y-72869399D01*
X123742420Y-72869400D01*
X123548926Y-73004886D01*
X123548920Y-73004891D01*
X123381891Y-73171920D01*
X123381890Y-73171922D01*
X123271880Y-73329032D01*
X123217303Y-73372657D01*
X123147804Y-73379849D01*
X123085450Y-73348327D01*
X123068730Y-73329031D01*
X122958494Y-73171597D01*
X122791402Y-73004506D01*
X122791395Y-73004501D01*
X122597834Y-72868967D01*
X122597830Y-72868965D01*
X122557777Y-72850288D01*
X122383663Y-72769097D01*
X122383659Y-72769096D01*
X122383655Y-72769094D01*
X122155413Y-72707938D01*
X122155403Y-72707936D01*
X121920001Y-72687341D01*
X121919999Y-72687341D01*
X121684596Y-72707936D01*
X121684586Y-72707938D01*
X121456344Y-72769094D01*
X121456335Y-72769098D01*
X121242171Y-72868964D01*
X121166423Y-72922003D01*
X121100217Y-72944330D01*
X121032450Y-72927318D01*
X120984637Y-72876370D01*
X120971960Y-72807660D01*
X120998442Y-72743003D01*
X121007609Y-72732758D01*
X121833548Y-71906819D01*
X121894872Y-71873334D01*
X121921230Y-71870500D01*
X130447770Y-71870500D01*
X130514809Y-71890185D01*
X130535451Y-71906819D01*
X130848283Y-72219651D01*
X130881768Y-72280974D01*
X130876784Y-72350666D01*
X130834912Y-72406599D01*
X130769448Y-72431016D01*
X130701175Y-72416164D01*
X130686290Y-72406598D01*
X130632331Y-72366204D01*
X130632328Y-72366202D01*
X130497482Y-72315908D01*
X130497483Y-72315908D01*
X130437883Y-72309501D01*
X130437881Y-72309500D01*
X130437873Y-72309500D01*
X130437864Y-72309500D01*
X128642129Y-72309500D01*
X128642123Y-72309501D01*
X128582516Y-72315908D01*
X128447671Y-72366202D01*
X128447664Y-72366206D01*
X128332455Y-72452452D01*
X128332452Y-72452455D01*
X128246206Y-72567664D01*
X128246202Y-72567671D01*
X128195908Y-72702517D01*
X128189501Y-72762116D01*
X128189501Y-72762123D01*
X128189500Y-72762135D01*
X128189500Y-74557870D01*
X128189501Y-74557876D01*
X128195908Y-74617483D01*
X128246202Y-74752328D01*
X128246206Y-74752335D01*
X128332452Y-74867544D01*
X128332455Y-74867547D01*
X128447664Y-74953793D01*
X128447671Y-74953797D01*
X128579081Y-75002810D01*
X128635015Y-75044681D01*
X128659432Y-75110145D01*
X128644580Y-75178418D01*
X128623430Y-75206673D01*
X128501503Y-75328600D01*
X128365965Y-75522169D01*
X128365964Y-75522171D01*
X128266098Y-75736335D01*
X128266094Y-75736344D01*
X128204938Y-75964586D01*
X128204936Y-75964596D01*
X128184341Y-76199999D01*
X128184341Y-76200000D01*
X128204936Y-76435403D01*
X128204938Y-76435413D01*
X128266094Y-76663655D01*
X128266096Y-76663659D01*
X128266097Y-76663663D01*
X128345801Y-76834588D01*
X128365965Y-76877830D01*
X128365967Y-76877834D01*
X128474281Y-77032521D01*
X128501504Y-77071400D01*
X128501506Y-77071402D01*
X128668597Y-77238493D01*
X128668603Y-77238498D01*
X128854158Y-77368425D01*
X128897783Y-77423002D01*
X128904977Y-77492500D01*
X128873454Y-77554855D01*
X128854158Y-77571575D01*
X128668597Y-77701505D01*
X128501505Y-77868597D01*
X128365965Y-78062169D01*
X128365964Y-78062171D01*
X128266098Y-78276335D01*
X128266094Y-78276344D01*
X128204938Y-78504586D01*
X128204936Y-78504596D01*
X128184341Y-78739999D01*
X128184341Y-78740000D01*
X128204936Y-78975403D01*
X128204938Y-78975413D01*
X128266094Y-79203655D01*
X128266096Y-79203659D01*
X128266097Y-79203663D01*
X128345801Y-79374588D01*
X128365965Y-79417830D01*
X128365967Y-79417834D01*
X128474281Y-79572521D01*
X128501504Y-79611400D01*
X128501506Y-79611402D01*
X128668597Y-79778493D01*
X128668603Y-79778498D01*
X128854158Y-79908425D01*
X128897783Y-79963002D01*
X128904977Y-80032500D01*
X128873454Y-80094855D01*
X128854158Y-80111575D01*
X128668597Y-80241505D01*
X128501505Y-80408597D01*
X128365965Y-80602169D01*
X128365964Y-80602171D01*
X128266098Y-80816335D01*
X128266094Y-80816344D01*
X128204938Y-81044586D01*
X128204936Y-81044596D01*
X128184341Y-81279999D01*
X128184341Y-81280000D01*
X128204936Y-81515403D01*
X128204938Y-81515413D01*
X128266094Y-81743655D01*
X128266096Y-81743659D01*
X128266097Y-81743663D01*
X128345801Y-81914588D01*
X128365965Y-81957830D01*
X128365967Y-81957834D01*
X128374732Y-81970351D01*
X128501504Y-82151400D01*
X128501506Y-82151402D01*
X128668597Y-82318493D01*
X128668603Y-82318498D01*
X128854158Y-82448425D01*
X128897783Y-82503002D01*
X128904977Y-82572500D01*
X128873454Y-82634855D01*
X128854158Y-82651575D01*
X128668597Y-82781505D01*
X128501505Y-82948597D01*
X128365965Y-83142169D01*
X128365964Y-83142171D01*
X128266098Y-83356335D01*
X128266094Y-83356344D01*
X128204938Y-83584586D01*
X128204936Y-83584596D01*
X128184341Y-83819999D01*
X128184341Y-83820000D01*
X128204936Y-84055403D01*
X128204938Y-84055413D01*
X128266094Y-84283655D01*
X128266096Y-84283659D01*
X128266097Y-84283663D01*
X128345801Y-84454588D01*
X128365965Y-84497830D01*
X128365967Y-84497834D01*
X128474281Y-84652521D01*
X128501504Y-84691400D01*
X128501506Y-84691402D01*
X128668597Y-84858493D01*
X128668603Y-84858498D01*
X128854158Y-84988425D01*
X128897783Y-85043002D01*
X128904977Y-85112500D01*
X128873454Y-85174855D01*
X128854158Y-85191575D01*
X128668597Y-85321505D01*
X128501505Y-85488597D01*
X128365965Y-85682169D01*
X128365964Y-85682171D01*
X128266098Y-85896335D01*
X128266094Y-85896344D01*
X128204938Y-86124586D01*
X128204936Y-86124596D01*
X128184341Y-86359999D01*
X128184341Y-86360000D01*
X128204936Y-86595403D01*
X128204938Y-86595413D01*
X128266094Y-86823655D01*
X128266096Y-86823659D01*
X128266097Y-86823663D01*
X128345801Y-86994588D01*
X128365965Y-87037830D01*
X128365967Y-87037834D01*
X128474281Y-87192521D01*
X128501504Y-87231400D01*
X128501506Y-87231402D01*
X128668597Y-87398493D01*
X128668603Y-87398498D01*
X128854158Y-87528425D01*
X128897783Y-87583002D01*
X128904977Y-87652500D01*
X128873454Y-87714855D01*
X128854158Y-87731575D01*
X128668597Y-87861505D01*
X128501505Y-88028597D01*
X128365965Y-88222169D01*
X128365964Y-88222171D01*
X128266098Y-88436335D01*
X128266094Y-88436344D01*
X128204938Y-88664586D01*
X128204936Y-88664596D01*
X128184341Y-88899999D01*
X128184341Y-88900000D01*
X128204936Y-89135403D01*
X128204938Y-89135413D01*
X128266094Y-89363655D01*
X128266096Y-89363659D01*
X128266097Y-89363663D01*
X128345801Y-89534588D01*
X128365965Y-89577830D01*
X128365967Y-89577834D01*
X128460819Y-89713295D01*
X128501504Y-89771400D01*
X128501506Y-89771402D01*
X128668597Y-89938493D01*
X128668603Y-89938498D01*
X128854158Y-90068425D01*
X128897783Y-90123002D01*
X128904977Y-90192500D01*
X128873454Y-90254855D01*
X128854158Y-90271575D01*
X128668597Y-90401505D01*
X128501505Y-90568597D01*
X128365965Y-90762169D01*
X128365964Y-90762171D01*
X128266098Y-90976335D01*
X128266094Y-90976344D01*
X128204938Y-91204586D01*
X128204936Y-91204596D01*
X128184341Y-91439999D01*
X128184341Y-91440000D01*
X128204936Y-91675403D01*
X128204938Y-91675413D01*
X128266094Y-91903655D01*
X128266096Y-91903659D01*
X128266097Y-91903663D01*
X128345801Y-92074588D01*
X128365965Y-92117830D01*
X128365967Y-92117834D01*
X128442820Y-92227590D01*
X128501505Y-92311401D01*
X128668599Y-92478495D01*
X128740335Y-92528725D01*
X128862165Y-92614032D01*
X128862167Y-92614033D01*
X128862170Y-92614035D01*
X129076337Y-92713903D01*
X129076343Y-92713904D01*
X129076344Y-92713905D01*
X129131285Y-92728626D01*
X129304592Y-92775063D01*
X129492918Y-92791539D01*
X129539999Y-92795659D01*
X129540000Y-92795659D01*
X129540001Y-92795659D01*
X129579234Y-92792226D01*
X129775408Y-92775063D01*
X130003663Y-92713903D01*
X130217830Y-92614035D01*
X130411401Y-92478495D01*
X130578495Y-92311401D01*
X130708424Y-92125842D01*
X130763002Y-92082217D01*
X130832500Y-92075023D01*
X130894855Y-92106546D01*
X130911575Y-92125842D01*
X131041500Y-92311395D01*
X131041505Y-92311401D01*
X131208599Y-92478495D01*
X131280335Y-92528725D01*
X131402165Y-92614032D01*
X131402167Y-92614033D01*
X131402170Y-92614035D01*
X131616337Y-92713903D01*
X131616343Y-92713904D01*
X131616344Y-92713905D01*
X131671285Y-92728626D01*
X131844592Y-92775063D01*
X132032918Y-92791539D01*
X132079999Y-92795659D01*
X132080000Y-92795659D01*
X132080001Y-92795659D01*
X132119234Y-92792226D01*
X132315408Y-92775063D01*
X132543663Y-92713903D01*
X132757830Y-92614035D01*
X132951401Y-92478495D01*
X133118495Y-92311401D01*
X133248730Y-92125405D01*
X133303307Y-92081781D01*
X133372805Y-92074587D01*
X133435160Y-92106110D01*
X133451879Y-92125405D01*
X133581890Y-92311078D01*
X133748917Y-92478105D01*
X133942421Y-92613600D01*
X134156507Y-92713429D01*
X134156516Y-92713433D01*
X134370000Y-92770634D01*
X134370000Y-91875501D01*
X134477685Y-91924680D01*
X134584237Y-91940000D01*
X134655763Y-91940000D01*
X134762315Y-91924680D01*
X134870000Y-91875501D01*
X134870000Y-92770633D01*
X135083483Y-92713433D01*
X135083492Y-92713429D01*
X135297578Y-92613600D01*
X135491082Y-92478105D01*
X135658105Y-92311082D01*
X135793600Y-92117578D01*
X135893429Y-91903492D01*
X135893432Y-91903486D01*
X135950636Y-91690000D01*
X135053686Y-91690000D01*
X135079493Y-91649844D01*
X135120000Y-91511889D01*
X135120000Y-91368111D01*
X135079493Y-91230156D01*
X135053686Y-91190000D01*
X135950636Y-91190000D01*
X135950635Y-91189999D01*
X135893432Y-90976513D01*
X135893429Y-90976507D01*
X135793600Y-90762422D01*
X135793599Y-90762420D01*
X135658113Y-90568926D01*
X135658108Y-90568920D01*
X135491082Y-90401894D01*
X135304968Y-90271575D01*
X135261344Y-90216998D01*
X135254151Y-90147499D01*
X135285673Y-90085145D01*
X135304968Y-90068425D01*
X135491082Y-89938105D01*
X135658105Y-89771082D01*
X135793600Y-89577578D01*
X135893429Y-89363492D01*
X135893432Y-89363486D01*
X135950636Y-89150000D01*
X135053686Y-89150000D01*
X135079493Y-89109844D01*
X135120000Y-88971889D01*
X135120000Y-88828111D01*
X135079493Y-88690156D01*
X135053686Y-88650000D01*
X135950636Y-88650000D01*
X135950635Y-88649999D01*
X135893432Y-88436513D01*
X135893429Y-88436507D01*
X135793600Y-88222422D01*
X135793599Y-88222420D01*
X135658113Y-88028926D01*
X135658108Y-88028920D01*
X135491082Y-87861894D01*
X135304968Y-87731575D01*
X135261344Y-87676998D01*
X135254151Y-87607499D01*
X135285673Y-87545145D01*
X135304968Y-87528425D01*
X135491082Y-87398105D01*
X135658105Y-87231082D01*
X135793600Y-87037578D01*
X135893429Y-86823492D01*
X135893432Y-86823486D01*
X135950636Y-86610000D01*
X135053686Y-86610000D01*
X135079493Y-86569844D01*
X135120000Y-86431889D01*
X135120000Y-86288111D01*
X135079493Y-86150156D01*
X135053686Y-86110000D01*
X135950636Y-86110000D01*
X135950635Y-86109999D01*
X135893432Y-85896513D01*
X135893429Y-85896507D01*
X135793600Y-85682422D01*
X135793599Y-85682420D01*
X135658113Y-85488926D01*
X135658108Y-85488920D01*
X135491082Y-85321894D01*
X135304968Y-85191575D01*
X135261344Y-85136998D01*
X135254151Y-85067499D01*
X135285673Y-85005145D01*
X135304968Y-84988425D01*
X135491082Y-84858105D01*
X135658105Y-84691082D01*
X135793600Y-84497578D01*
X135893429Y-84283492D01*
X135893432Y-84283486D01*
X135950636Y-84070000D01*
X135053686Y-84070000D01*
X135079493Y-84029844D01*
X135120000Y-83891889D01*
X135120000Y-83748111D01*
X135079493Y-83610156D01*
X135053686Y-83570000D01*
X135950636Y-83570000D01*
X135950635Y-83569999D01*
X135893432Y-83356513D01*
X135893429Y-83356507D01*
X135793600Y-83142422D01*
X135793599Y-83142420D01*
X135658113Y-82948926D01*
X135658108Y-82948920D01*
X135491082Y-82781894D01*
X135304968Y-82651575D01*
X135261344Y-82596998D01*
X135254151Y-82527499D01*
X135285673Y-82465145D01*
X135304968Y-82448425D01*
X135491082Y-82318105D01*
X135658105Y-82151082D01*
X135793600Y-81957578D01*
X135893429Y-81743492D01*
X135893432Y-81743486D01*
X135950636Y-81530000D01*
X135053686Y-81530000D01*
X135079493Y-81489844D01*
X135120000Y-81351889D01*
X135120000Y-81208111D01*
X135079493Y-81070156D01*
X135053686Y-81030000D01*
X135950636Y-81030000D01*
X135950635Y-81029999D01*
X135893432Y-80816513D01*
X135893429Y-80816507D01*
X135793600Y-80602422D01*
X135793599Y-80602420D01*
X135658113Y-80408926D01*
X135658108Y-80408920D01*
X135491082Y-80241894D01*
X135304968Y-80111575D01*
X135261344Y-80056998D01*
X135254151Y-79987499D01*
X135285673Y-79925145D01*
X135304968Y-79908425D01*
X135491082Y-79778105D01*
X135658105Y-79611082D01*
X135793600Y-79417578D01*
X135893429Y-79203492D01*
X135893432Y-79203486D01*
X135950636Y-78990000D01*
X135053686Y-78990000D01*
X135079493Y-78949844D01*
X135120000Y-78811889D01*
X135120000Y-78668111D01*
X135079493Y-78530156D01*
X135053686Y-78490000D01*
X135950636Y-78490000D01*
X135950635Y-78489999D01*
X135893432Y-78276513D01*
X135893429Y-78276507D01*
X135793600Y-78062422D01*
X135793599Y-78062420D01*
X135658113Y-77868926D01*
X135658108Y-77868920D01*
X135491082Y-77701894D01*
X135304968Y-77571575D01*
X135261344Y-77516998D01*
X135254151Y-77447499D01*
X135285673Y-77385145D01*
X135304968Y-77368425D01*
X135491082Y-77238105D01*
X135658105Y-77071082D01*
X135793600Y-76877578D01*
X135893429Y-76663492D01*
X135893432Y-76663486D01*
X135950636Y-76450000D01*
X135053686Y-76450000D01*
X135079493Y-76409844D01*
X135120000Y-76271889D01*
X135120000Y-76128111D01*
X135079493Y-75990156D01*
X135053686Y-75950000D01*
X135950636Y-75950000D01*
X135950635Y-75949999D01*
X135893432Y-75736513D01*
X135893429Y-75736507D01*
X135793600Y-75522422D01*
X135793599Y-75522420D01*
X135658113Y-75328926D01*
X135658108Y-75328920D01*
X135535665Y-75206477D01*
X135502180Y-75145154D01*
X135507164Y-75075462D01*
X135549036Y-75019529D01*
X135580013Y-75002614D01*
X135712086Y-74953354D01*
X135712093Y-74953350D01*
X135827187Y-74867190D01*
X135827190Y-74867187D01*
X135913350Y-74752093D01*
X135913354Y-74752086D01*
X135963596Y-74617379D01*
X135963598Y-74617372D01*
X135969999Y-74557844D01*
X135970000Y-74557827D01*
X135970000Y-73910000D01*
X135053686Y-73910000D01*
X135079493Y-73869844D01*
X135120000Y-73731889D01*
X135120000Y-73588111D01*
X135079493Y-73450156D01*
X135053686Y-73410000D01*
X135970000Y-73410000D01*
X135970000Y-72762172D01*
X135969999Y-72762155D01*
X135963598Y-72702627D01*
X135963596Y-72702620D01*
X135913354Y-72567913D01*
X135913350Y-72567906D01*
X135827190Y-72452812D01*
X135827187Y-72452809D01*
X135712093Y-72366649D01*
X135712086Y-72366645D01*
X135577379Y-72316403D01*
X135577372Y-72316401D01*
X135517844Y-72310000D01*
X134870000Y-72310000D01*
X134870000Y-73224498D01*
X134762315Y-73175320D01*
X134655763Y-73160000D01*
X134584237Y-73160000D01*
X134477685Y-73175320D01*
X134370000Y-73224498D01*
X134370000Y-72310000D01*
X133722155Y-72310000D01*
X133662627Y-72316401D01*
X133662620Y-72316403D01*
X133527913Y-72366645D01*
X133527910Y-72366647D01*
X133424727Y-72443890D01*
X133359262Y-72468307D01*
X133290989Y-72453455D01*
X133276105Y-72443889D01*
X133172335Y-72366206D01*
X133172328Y-72366202D01*
X133037482Y-72315908D01*
X133037483Y-72315908D01*
X132977883Y-72309501D01*
X132977881Y-72309500D01*
X132977873Y-72309500D01*
X132977865Y-72309500D01*
X132935508Y-72309500D01*
X132868469Y-72289815D01*
X132822714Y-72237011D01*
X132817742Y-72222522D01*
X132817712Y-72222534D01*
X132788971Y-72143568D01*
X132764816Y-72070670D01*
X132761761Y-72064118D01*
X132761815Y-72064092D01*
X132758533Y-72057312D01*
X132758480Y-72057340D01*
X132755238Y-72050886D01*
X132755237Y-72050883D01*
X132713038Y-71986723D01*
X132672712Y-71921344D01*
X132672711Y-71921343D01*
X132672710Y-71921341D01*
X132668234Y-71915681D01*
X132668280Y-71915643D01*
X132663519Y-71909799D01*
X132663474Y-71909838D01*
X132658834Y-71904308D01*
X132602982Y-71851613D01*
X131385729Y-70634361D01*
X131373949Y-70620730D01*
X131366482Y-70610701D01*
X131359612Y-70601472D01*
X131359610Y-70601470D01*
X131319587Y-70567886D01*
X131315612Y-70564244D01*
X131312690Y-70561322D01*
X131309780Y-70558411D01*
X131284040Y-70538059D01*
X131225209Y-70488694D01*
X131219180Y-70484729D01*
X131219212Y-70484680D01*
X131212853Y-70480628D01*
X131212822Y-70480679D01*
X131206680Y-70476891D01*
X131206678Y-70476890D01*
X131206677Y-70476889D01*
X131167474Y-70458608D01*
X131137058Y-70444424D01*
X131102894Y-70427267D01*
X131068433Y-70409960D01*
X131068431Y-70409959D01*
X131068430Y-70409959D01*
X131061645Y-70407489D01*
X131061665Y-70407433D01*
X131054549Y-70404959D01*
X131054531Y-70405015D01*
X131047671Y-70402742D01*
X131019841Y-70396996D01*
X130972434Y-70387207D01*
X130923472Y-70375603D01*
X130897719Y-70369499D01*
X130890547Y-70368661D01*
X130890553Y-70368601D01*
X130883055Y-70367835D01*
X130883050Y-70367895D01*
X130875860Y-70367265D01*
X130799083Y-70369500D01*
X121622705Y-70369500D01*
X121604735Y-70368191D01*
X121580972Y-70364710D01*
X121536512Y-70368601D01*
X121528931Y-70369264D01*
X121523530Y-70369500D01*
X121515289Y-70369500D01*
X121493579Y-70372037D01*
X121482724Y-70373306D01*
X121467419Y-70374645D01*
X121406199Y-70380001D01*
X121399132Y-70381460D01*
X121399120Y-70381404D01*
X121391763Y-70383035D01*
X121391777Y-70383092D01*
X121384743Y-70384759D01*
X121312575Y-70411025D01*
X121239675Y-70435181D01*
X121233126Y-70438236D01*
X121233101Y-70438183D01*
X121226308Y-70441471D01*
X121226334Y-70441523D01*
X121219880Y-70444764D01*
X121155708Y-70486971D01*
X121090347Y-70527285D01*
X121084683Y-70531765D01*
X121084647Y-70531719D01*
X121078798Y-70536484D01*
X121078835Y-70536528D01*
X121073310Y-70541164D01*
X121020597Y-70597035D01*
X118961449Y-72656181D01*
X118900126Y-72689666D01*
X118873769Y-72692500D01*
X118769999Y-72692500D01*
X118769980Y-72692501D01*
X118667203Y-72703000D01*
X118667200Y-72703001D01*
X118500668Y-72758185D01*
X118500663Y-72758187D01*
X118351342Y-72850289D01*
X118227289Y-72974342D01*
X118135187Y-73123663D01*
X118135185Y-73123668D01*
X118107349Y-73207670D01*
X118080001Y-73290203D01*
X118080001Y-73290204D01*
X118080000Y-73290204D01*
X118069500Y-73392983D01*
X118069500Y-74943001D01*
X118069501Y-74943018D01*
X118080000Y-75045796D01*
X118080001Y-75045799D01*
X118123882Y-75178222D01*
X118135186Y-75212334D01*
X118227288Y-75361656D01*
X118351344Y-75485712D01*
X118500666Y-75577814D01*
X118584503Y-75605595D01*
X118641948Y-75645366D01*
X118668771Y-75709882D01*
X118669499Y-75723300D01*
X118669499Y-80215699D01*
X118649814Y-80282738D01*
X118597010Y-80328493D01*
X118584507Y-80333403D01*
X118500665Y-80361185D01*
X118500666Y-80361186D01*
X118500663Y-80361187D01*
X118351342Y-80453289D01*
X118227289Y-80577342D01*
X118135187Y-80726663D01*
X118135185Y-80726668D01*
X118119194Y-80774926D01*
X118080001Y-80893203D01*
X118080001Y-80893204D01*
X118080000Y-80893204D01*
X118069500Y-80995983D01*
X118069500Y-82546001D01*
X113749837Y-82546001D01*
X113861073Y-82468113D01*
X113861079Y-82468108D01*
X114028108Y-82301079D01*
X114028113Y-82301073D01*
X114163599Y-82107579D01*
X114163600Y-82107577D01*
X114263429Y-81893492D01*
X114263433Y-81893483D01*
X114324567Y-81665326D01*
X114324569Y-81665315D01*
X114336407Y-81530000D01*
X113423686Y-81530000D01*
X113449493Y-81489844D01*
X113490000Y-81351889D01*
X113490000Y-81208111D01*
X113449493Y-81070156D01*
X113423686Y-81030000D01*
X114336407Y-81030000D01*
X114336407Y-81029999D01*
X114324569Y-80894684D01*
X114324567Y-80894673D01*
X114263433Y-80666516D01*
X114263429Y-80666507D01*
X114163600Y-80452422D01*
X114163599Y-80452420D01*
X114028113Y-80258926D01*
X114028108Y-80258920D01*
X113861082Y-80091894D01*
X113667578Y-79956399D01*
X113453492Y-79856570D01*
X113453486Y-79856567D01*
X113240000Y-79799364D01*
X113240000Y-80844498D01*
X113132315Y-80795320D01*
X113025763Y-80780000D01*
X112954237Y-80780000D01*
X112847685Y-80795320D01*
X112739999Y-80844498D01*
X112739999Y-79799364D01*
X112739998Y-79799364D01*
X112526505Y-79856570D01*
X112312422Y-79956399D01*
X112312420Y-79956400D01*
X112118926Y-80091886D01*
X111971668Y-80239144D01*
X111910345Y-80272628D01*
X111840653Y-80267644D01*
X111784720Y-80225772D01*
X111778448Y-80216558D01*
X111713694Y-80111575D01*
X111682712Y-80061344D01*
X111558656Y-79937288D01*
X111409334Y-79845186D01*
X111242797Y-79790001D01*
X111242795Y-79790000D01*
X111140010Y-79779500D01*
X109839998Y-79779500D01*
X109839981Y-79779501D01*
X109737203Y-79790000D01*
X109737200Y-79790001D01*
X109570668Y-79845185D01*
X109570663Y-79845187D01*
X109421342Y-79937289D01*
X109297289Y-80061342D01*
X109205187Y-80210663D01*
X109205185Y-80210668D01*
X109194839Y-80241890D01*
X109150001Y-80377203D01*
X109150001Y-80377204D01*
X109150000Y-80377204D01*
X109139500Y-80479983D01*
X109139500Y-82080001D01*
X97608490Y-82080001D01*
X97694035Y-81957830D01*
X97793903Y-81743663D01*
X97855063Y-81515408D01*
X97875659Y-81280000D01*
X97855063Y-81044592D01*
X97793903Y-80816337D01*
X97694035Y-80602171D01*
X97688731Y-80594595D01*
X97558494Y-80408597D01*
X97391402Y-80241506D01*
X97391396Y-80241501D01*
X97205842Y-80111575D01*
X97162217Y-80056998D01*
X97155023Y-79987500D01*
X97186546Y-79925145D01*
X97205842Y-79908425D01*
X97296158Y-79845185D01*
X97391401Y-79778495D01*
X97558495Y-79611401D01*
X97694035Y-79417830D01*
X97793903Y-79203663D01*
X97855063Y-78975408D01*
X97875659Y-78740000D01*
X97855063Y-78504592D01*
X97793903Y-78276337D01*
X97694035Y-78062171D01*
X97688731Y-78054595D01*
X97558494Y-77868597D01*
X97391402Y-77701506D01*
X97391396Y-77701501D01*
X97205842Y-77571575D01*
X97162217Y-77516998D01*
X97155023Y-77447500D01*
X97186546Y-77385145D01*
X97205842Y-77368425D01*
X97228026Y-77352891D01*
X97391401Y-77238495D01*
X97558495Y-77071401D01*
X97694035Y-76877830D01*
X97793903Y-76663663D01*
X97855063Y-76435408D01*
X97875659Y-76200000D01*
X97855063Y-75964592D01*
X97793903Y-75736337D01*
X97694035Y-75522171D01*
X97688730Y-75514595D01*
X97558496Y-75328600D01*
X97558494Y-75328598D01*
X97436567Y-75206671D01*
X97403084Y-75145351D01*
X97408068Y-75075659D01*
X97449939Y-75019725D01*
X97480915Y-75002810D01*
X97612331Y-74953796D01*
X97727546Y-74867546D01*
X97813796Y-74752331D01*
X97864091Y-74617483D01*
X97870500Y-74557873D01*
X97870500Y-74460001D01*
X109179500Y-74460001D01*
X109179501Y-74460018D01*
X109190000Y-74562796D01*
X109190001Y-74562799D01*
X109245185Y-74729331D01*
X109245187Y-74729336D01*
X109278977Y-74784118D01*
X109337288Y-74878656D01*
X109461344Y-75002712D01*
X109610666Y-75094814D01*
X109777203Y-75149999D01*
X109879991Y-75160500D01*
X111180008Y-75160499D01*
X111183386Y-75160154D01*
X111197895Y-75158671D01*
X111282797Y-75149999D01*
X111449334Y-75094814D01*
X111598656Y-75002712D01*
X111722712Y-74878656D01*
X111814814Y-74729334D01*
X111814814Y-74729333D01*
X111818448Y-74723442D01*
X111870396Y-74676717D01*
X111939358Y-74665494D01*
X112003441Y-74693337D01*
X112011668Y-74700856D01*
X112158921Y-74848108D01*
X112352421Y-74983600D01*
X112566507Y-75083429D01*
X112566516Y-75083433D01*
X112780000Y-75140634D01*
X112780000Y-74095501D01*
X112887685Y-74144680D01*
X112994237Y-74160000D01*
X113065763Y-74160000D01*
X113172315Y-74144680D01*
X113280000Y-74095501D01*
X113280000Y-75140634D01*
X113493483Y-75083433D01*
X113493492Y-75083429D01*
X113707577Y-74983600D01*
X113707579Y-74983599D01*
X113901073Y-74848113D01*
X113901079Y-74848108D01*
X114068108Y-74681079D01*
X114068113Y-74681073D01*
X114203599Y-74487579D01*
X114203600Y-74487577D01*
X114303429Y-74273492D01*
X114303433Y-74273483D01*
X114364567Y-74045326D01*
X114364569Y-74045315D01*
X114376407Y-73910000D01*
X113463686Y-73910000D01*
X113489493Y-73869844D01*
X113530000Y-73731889D01*
X113530000Y-73588111D01*
X113489493Y-73450156D01*
X113463686Y-73410000D01*
X114376407Y-73410000D01*
X114376407Y-73409999D01*
X114364569Y-73274684D01*
X114364567Y-73274673D01*
X114303433Y-73046516D01*
X114303429Y-73046507D01*
X114203600Y-72832422D01*
X114203599Y-72832420D01*
X114068113Y-72638926D01*
X114068108Y-72638920D01*
X113901082Y-72471894D01*
X113707578Y-72336399D01*
X113493492Y-72236570D01*
X113493486Y-72236567D01*
X113280000Y-72179364D01*
X113280000Y-73224498D01*
X113172315Y-73175320D01*
X113065763Y-73160000D01*
X112994237Y-73160000D01*
X112887685Y-73175320D01*
X112780000Y-73224498D01*
X112780000Y-72179364D01*
X112779999Y-72179364D01*
X112566513Y-72236567D01*
X112566507Y-72236570D01*
X112352422Y-72336399D01*
X112352420Y-72336400D01*
X112158926Y-72471886D01*
X112011668Y-72619144D01*
X111950345Y-72652628D01*
X111880653Y-72647644D01*
X111824720Y-72605772D01*
X111818448Y-72596558D01*
X111800775Y-72567906D01*
X111722712Y-72441344D01*
X111598656Y-72317288D01*
X111468817Y-72237203D01*
X111449336Y-72225187D01*
X111449331Y-72225185D01*
X111441295Y-72222522D01*
X111282797Y-72170001D01*
X111282795Y-72170000D01*
X111180010Y-72159500D01*
X109879998Y-72159500D01*
X109879981Y-72159501D01*
X109777203Y-72170000D01*
X109777200Y-72170001D01*
X109610668Y-72225185D01*
X109610663Y-72225187D01*
X109461342Y-72317289D01*
X109337289Y-72441342D01*
X109245187Y-72590663D01*
X109245185Y-72590668D01*
X109240180Y-72605772D01*
X109190001Y-72757203D01*
X109190001Y-72757204D01*
X109190000Y-72757204D01*
X109179500Y-72859983D01*
X109179500Y-74460001D01*
X97870500Y-74460001D01*
X97870499Y-72762128D01*
X97864091Y-72702517D01*
X97860355Y-72692501D01*
X97813797Y-72567671D01*
X97813793Y-72567664D01*
X97727547Y-72452455D01*
X97727544Y-72452452D01*
X97612335Y-72366206D01*
X97612328Y-72366202D01*
X97477482Y-72315908D01*
X97477483Y-72315908D01*
X97417883Y-72309501D01*
X97417881Y-72309500D01*
X97417873Y-72309500D01*
X97417864Y-72309500D01*
X95622129Y-72309500D01*
X95622123Y-72309501D01*
X95562516Y-72315908D01*
X95427671Y-72366202D01*
X95427669Y-72366203D01*
X95324311Y-72443578D01*
X95258847Y-72467995D01*
X95190574Y-72453144D01*
X95175689Y-72443578D01*
X95158908Y-72431016D01*
X95126290Y-72406598D01*
X95072330Y-72366203D01*
X95072328Y-72366202D01*
X94937482Y-72315908D01*
X94937483Y-72315908D01*
X94877883Y-72309501D01*
X94877881Y-72309500D01*
X94877873Y-72309500D01*
X94877864Y-72309500D01*
X93082129Y-72309500D01*
X93082123Y-72309501D01*
X93022516Y-72315908D01*
X92887671Y-72366202D01*
X92887669Y-72366204D01*
X92783894Y-72443890D01*
X92718430Y-72468307D01*
X92650157Y-72453456D01*
X92635272Y-72443890D01*
X92532088Y-72366646D01*
X92532086Y-72366645D01*
X92397379Y-72316403D01*
X92397372Y-72316401D01*
X92337844Y-72310000D01*
X91690000Y-72310000D01*
X91690000Y-73224498D01*
X91582315Y-73175320D01*
X91475763Y-73160000D01*
X91404237Y-73160000D01*
X91297685Y-73175320D01*
X91190000Y-73224498D01*
X91190000Y-72310000D01*
X90542155Y-72310000D01*
X90482627Y-72316401D01*
X90482620Y-72316403D01*
X90347913Y-72366645D01*
X90347906Y-72366649D01*
X90232812Y-72452809D01*
X90232809Y-72452812D01*
X90146649Y-72567906D01*
X90146645Y-72567913D01*
X90096403Y-72702620D01*
X90096401Y-72702627D01*
X90090000Y-72762155D01*
X90090000Y-73410000D01*
X91006314Y-73410000D01*
X90980507Y-73450156D01*
X90940000Y-73588111D01*
X90940000Y-73731889D01*
X90980507Y-73869844D01*
X91006314Y-73910000D01*
X90090000Y-73910000D01*
X90090000Y-74557844D01*
X89200500Y-74557844D01*
X89200500Y-68110001D01*
X91399500Y-68110001D01*
X91399501Y-68110018D01*
X91410000Y-68212796D01*
X91410001Y-68212799D01*
X91455361Y-68349685D01*
X91465186Y-68379334D01*
X91557288Y-68528656D01*
X91681344Y-68652712D01*
X91830666Y-68744814D01*
X91997203Y-68799999D01*
X92099991Y-68810500D01*
X93400008Y-68810499D01*
X93502797Y-68799999D01*
X93669334Y-68744814D01*
X93818656Y-68652712D01*
X93942712Y-68528656D01*
X94034814Y-68379334D01*
X94034814Y-68379333D01*
X94038448Y-68373442D01*
X94090396Y-68326717D01*
X94159358Y-68315494D01*
X94223441Y-68343337D01*
X94231668Y-68350856D01*
X94378921Y-68498108D01*
X94572421Y-68633600D01*
X94786507Y-68733429D01*
X94786516Y-68733433D01*
X95000000Y-68790634D01*
X95000000Y-67745501D01*
X95107685Y-67794680D01*
X95214237Y-67810000D01*
X95285763Y-67810000D01*
X95392315Y-67794680D01*
X95500000Y-67745501D01*
X95500000Y-68790633D01*
X95713483Y-68733433D01*
X95713492Y-68733429D01*
X95927577Y-68633600D01*
X95927579Y-68633599D01*
X96121073Y-68498113D01*
X96121079Y-68498108D01*
X96288108Y-68331079D01*
X96288113Y-68331073D01*
X96423599Y-68137579D01*
X96423600Y-68137577D01*
X96523429Y-67923492D01*
X96523433Y-67923483D01*
X96584567Y-67695326D01*
X96584569Y-67695315D01*
X96596407Y-67560000D01*
X95683686Y-67560000D01*
X95709493Y-67519844D01*
X95750000Y-67381889D01*
X95750000Y-67238111D01*
X95709493Y-67100156D01*
X95683686Y-67060000D01*
X96596407Y-67060000D01*
X96596407Y-67059999D01*
X96584569Y-66924684D01*
X96584567Y-66924673D01*
X96523433Y-66696516D01*
X96523429Y-66696507D01*
X96423600Y-66482422D01*
X96423599Y-66482420D01*
X96288113Y-66288926D01*
X96288108Y-66288920D01*
X96121082Y-66121894D01*
X96004127Y-66040000D01*
X100244341Y-66040000D01*
X100264936Y-66275403D01*
X100264938Y-66275413D01*
X100326094Y-66503655D01*
X100326096Y-66503659D01*
X100326097Y-66503663D01*
X100395519Y-66652539D01*
X100425965Y-66717830D01*
X100425967Y-66717834D01*
X100490503Y-66810000D01*
X100561504Y-66911400D01*
X100561506Y-66911402D01*
X100728597Y-67078493D01*
X100728603Y-67078498D01*
X100914594Y-67208730D01*
X100958219Y-67263307D01*
X100965413Y-67332805D01*
X100933890Y-67395160D01*
X100914595Y-67411880D01*
X100728922Y-67541890D01*
X100728920Y-67541891D01*
X100561891Y-67708920D01*
X100561886Y-67708926D01*
X100426400Y-67902420D01*
X100426399Y-67902422D01*
X100326570Y-68116507D01*
X100326567Y-68116513D01*
X100269364Y-68329999D01*
X100269364Y-68330000D01*
X101166314Y-68330000D01*
X101140507Y-68370156D01*
X101100000Y-68508111D01*
X101100000Y-68651889D01*
X101140507Y-68789844D01*
X101166314Y-68830000D01*
X100269364Y-68830000D01*
X100326567Y-69043486D01*
X100326570Y-69043492D01*
X100426399Y-69257578D01*
X100561894Y-69451082D01*
X100728917Y-69618105D01*
X100922421Y-69753600D01*
X101136507Y-69853429D01*
X101136516Y-69853433D01*
X101350000Y-69910634D01*
X101350000Y-69015501D01*
X101457685Y-69064680D01*
X101564237Y-69080000D01*
X101635763Y-69080000D01*
X101742315Y-69064680D01*
X101850000Y-69015501D01*
X101850000Y-69910633D01*
X102063483Y-69853433D01*
X102063492Y-69853429D01*
X102277578Y-69753600D01*
X102471082Y-69618105D01*
X102638105Y-69451082D01*
X102768119Y-69265405D01*
X102822696Y-69221781D01*
X102892195Y-69214588D01*
X102954549Y-69246110D01*
X102971269Y-69265405D01*
X103101505Y-69451401D01*
X103268599Y-69618495D01*
X103365384Y-69686265D01*
X103462165Y-69754032D01*
X103462167Y-69754033D01*
X103462170Y-69754035D01*
X103676337Y-69853903D01*
X103904592Y-69915063D01*
X104081034Y-69930500D01*
X104139999Y-69935659D01*
X104140000Y-69935659D01*
X104140001Y-69935659D01*
X104198966Y-69930500D01*
X104375408Y-69915063D01*
X104603663Y-69853903D01*
X104817830Y-69754035D01*
X105011401Y-69618495D01*
X105178495Y-69451401D01*
X105308426Y-69265841D01*
X105363002Y-69222217D01*
X105432500Y-69215023D01*
X105494855Y-69246546D01*
X105511575Y-69265842D01*
X105641281Y-69451082D01*
X105641505Y-69451401D01*
X105808599Y-69618495D01*
X105905384Y-69686265D01*
X106002165Y-69754032D01*
X106002167Y-69754033D01*
X106002170Y-69754035D01*
X106216337Y-69853903D01*
X106444592Y-69915063D01*
X106621034Y-69930500D01*
X106679999Y-69935659D01*
X106680000Y-69935659D01*
X106680001Y-69935659D01*
X106738966Y-69930500D01*
X106915408Y-69915063D01*
X107143663Y-69853903D01*
X107357830Y-69754035D01*
X107551401Y-69618495D01*
X107718495Y-69451401D01*
X107848426Y-69265840D01*
X107903001Y-69222217D01*
X107972499Y-69215023D01*
X108034854Y-69246546D01*
X108051574Y-69265841D01*
X108181505Y-69451401D01*
X108348599Y-69618495D01*
X108445384Y-69686264D01*
X108542165Y-69754032D01*
X108542167Y-69754033D01*
X108542170Y-69754035D01*
X108756337Y-69853903D01*
X108984592Y-69915063D01*
X109161034Y-69930500D01*
X109219999Y-69935659D01*
X109220000Y-69935659D01*
X109220001Y-69935659D01*
X109278966Y-69930500D01*
X109455408Y-69915063D01*
X109683663Y-69853903D01*
X109897830Y-69754035D01*
X110091401Y-69618495D01*
X110258495Y-69451401D01*
X110388426Y-69265841D01*
X110443002Y-69222217D01*
X110512500Y-69215023D01*
X110574855Y-69246546D01*
X110591575Y-69265842D01*
X110721281Y-69451082D01*
X110721505Y-69451401D01*
X110888599Y-69618495D01*
X110985384Y-69686264D01*
X111082165Y-69754032D01*
X111082167Y-69754033D01*
X111082170Y-69754035D01*
X111296337Y-69853903D01*
X111524592Y-69915063D01*
X111701034Y-69930500D01*
X111759999Y-69935659D01*
X111760000Y-69935659D01*
X111760001Y-69935659D01*
X111818966Y-69930500D01*
X111995408Y-69915063D01*
X112223663Y-69853903D01*
X112437830Y-69754035D01*
X112631401Y-69618495D01*
X112798495Y-69451401D01*
X112928426Y-69265841D01*
X112983002Y-69222217D01*
X113052500Y-69215023D01*
X113114855Y-69246546D01*
X113131575Y-69265842D01*
X113261281Y-69451082D01*
X113261505Y-69451401D01*
X113428599Y-69618495D01*
X113525384Y-69686264D01*
X113622165Y-69754032D01*
X113622167Y-69754033D01*
X113622170Y-69754035D01*
X113836337Y-69853903D01*
X114064592Y-69915063D01*
X114241034Y-69930500D01*
X114299999Y-69935659D01*
X114300000Y-69935659D01*
X114300001Y-69935659D01*
X114358966Y-69930500D01*
X114535408Y-69915063D01*
X114763663Y-69853903D01*
X114977830Y-69754035D01*
X115171401Y-69618495D01*
X115338495Y-69451401D01*
X115468426Y-69265841D01*
X115523002Y-69222217D01*
X115592500Y-69215023D01*
X115654855Y-69246546D01*
X115671575Y-69265842D01*
X115801281Y-69451082D01*
X115801505Y-69451401D01*
X115968599Y-69618495D01*
X116065384Y-69686264D01*
X116162165Y-69754032D01*
X116162167Y-69754033D01*
X116162170Y-69754035D01*
X116376337Y-69853903D01*
X116604592Y-69915063D01*
X116781034Y-69930500D01*
X116839999Y-69935659D01*
X116840000Y-69935659D01*
X116840001Y-69935659D01*
X116898966Y-69930500D01*
X117075408Y-69915063D01*
X117303663Y-69853903D01*
X117517830Y-69754035D01*
X117711401Y-69618495D01*
X117878495Y-69451401D01*
X118008426Y-69265841D01*
X118063002Y-69222217D01*
X118132500Y-69215023D01*
X118194855Y-69246546D01*
X118211575Y-69265842D01*
X118341281Y-69451082D01*
X118341505Y-69451401D01*
X118508599Y-69618495D01*
X118605384Y-69686264D01*
X118702165Y-69754032D01*
X118702167Y-69754033D01*
X118702170Y-69754035D01*
X118916337Y-69853903D01*
X119144592Y-69915063D01*
X119321034Y-69930500D01*
X119379999Y-69935659D01*
X119380000Y-69935659D01*
X119380001Y-69935659D01*
X119438966Y-69930500D01*
X119615408Y-69915063D01*
X119843663Y-69853903D01*
X120057830Y-69754035D01*
X120251401Y-69618495D01*
X120418495Y-69451401D01*
X120548426Y-69265841D01*
X120603002Y-69222217D01*
X120672500Y-69215023D01*
X120734855Y-69246546D01*
X120751575Y-69265842D01*
X120881281Y-69451082D01*
X120881505Y-69451401D01*
X121048599Y-69618495D01*
X121145384Y-69686264D01*
X121242165Y-69754032D01*
X121242167Y-69754033D01*
X121242170Y-69754035D01*
X121456337Y-69853903D01*
X121684592Y-69915063D01*
X121861034Y-69930500D01*
X121919999Y-69935659D01*
X121920000Y-69935659D01*
X121920001Y-69935659D01*
X121978966Y-69930500D01*
X122155408Y-69915063D01*
X122383663Y-69853903D01*
X122597830Y-69754035D01*
X122791401Y-69618495D01*
X122913329Y-69496566D01*
X122974648Y-69463084D01*
X123044340Y-69468068D01*
X123100274Y-69509939D01*
X123117189Y-69540917D01*
X123166202Y-69672328D01*
X123166206Y-69672335D01*
X123252452Y-69787544D01*
X123252455Y-69787547D01*
X123367664Y-69873793D01*
X123367671Y-69873797D01*
X123502517Y-69924091D01*
X123502516Y-69924091D01*
X123509444Y-69924835D01*
X123562127Y-69930500D01*
X125357872Y-69930499D01*
X125417483Y-69924091D01*
X125552331Y-69873796D01*
X125667546Y-69787546D01*
X125753796Y-69672331D01*
X125804091Y-69537483D01*
X125810500Y-69477873D01*
X125810499Y-68034499D01*
X125830184Y-67967461D01*
X125882987Y-67921706D01*
X125934499Y-67910500D01*
X128740501Y-67910500D01*
X128807540Y-67930185D01*
X128853295Y-67982989D01*
X128864501Y-68034500D01*
X128864501Y-68110018D01*
X128875000Y-68212796D01*
X128875001Y-68212799D01*
X128920361Y-68349685D01*
X128930186Y-68379334D01*
X129022288Y-68528656D01*
X129146344Y-68652712D01*
X129295666Y-68744814D01*
X129462203Y-68799999D01*
X129564991Y-68810500D01*
X130865008Y-68810499D01*
X130967797Y-68799999D01*
X131134334Y-68744814D01*
X131283656Y-68652712D01*
X131407712Y-68528656D01*
X131499814Y-68379334D01*
X131499814Y-68379333D01*
X131503448Y-68373442D01*
X131555396Y-68326717D01*
X131624358Y-68315494D01*
X131688441Y-68343337D01*
X131696668Y-68350856D01*
X131843921Y-68498108D01*
X132037421Y-68633600D01*
X132251507Y-68733429D01*
X132251516Y-68733433D01*
X132465000Y-68790634D01*
X132464999Y-67745501D01*
X132572685Y-67794680D01*
X132679237Y-67810000D01*
X132750763Y-67810000D01*
X132857315Y-67794680D01*
X132965000Y-67745501D01*
X132965000Y-68790633D01*
X133178483Y-68733433D01*
X133178492Y-68733429D01*
X133392577Y-68633600D01*
X133392579Y-68633599D01*
X133586073Y-68498113D01*
X133586079Y-68498108D01*
X133753108Y-68331079D01*
X133753113Y-68331073D01*
X133888599Y-68137579D01*
X133888600Y-68137577D01*
X133988429Y-67923492D01*
X133988433Y-67923483D01*
X134049567Y-67695326D01*
X134049569Y-67695315D01*
X134061407Y-67560000D01*
X133148686Y-67560000D01*
X133174493Y-67519844D01*
X133215000Y-67381889D01*
X133215000Y-67238111D01*
X133174493Y-67100156D01*
X133148686Y-67060000D01*
X134061407Y-67060000D01*
X134061407Y-67059999D01*
X134049569Y-66924684D01*
X134049567Y-66924673D01*
X133988433Y-66696516D01*
X133988429Y-66696507D01*
X133888600Y-66482422D01*
X133888599Y-66482420D01*
X133753113Y-66288926D01*
X133753108Y-66288920D01*
X133586082Y-66121894D01*
X133392578Y-65986399D01*
X133178492Y-65886570D01*
X133178486Y-65886567D01*
X132965000Y-65829364D01*
X132965000Y-66874498D01*
X132857315Y-66825320D01*
X132750763Y-66810000D01*
X132679237Y-66810000D01*
X132572685Y-66825320D01*
X132464999Y-66874498D01*
X132465000Y-65829364D01*
X132464999Y-65829364D01*
X132251513Y-65886567D01*
X132251507Y-65886570D01*
X132037422Y-65986399D01*
X132037420Y-65986400D01*
X131843926Y-66121886D01*
X131696668Y-66269144D01*
X131635345Y-66302628D01*
X131565653Y-66297644D01*
X131509720Y-66255772D01*
X131503448Y-66246558D01*
X131407712Y-66091344D01*
X131283657Y-65967289D01*
X131283656Y-65967288D01*
X131134334Y-65875186D01*
X130967797Y-65820001D01*
X130967795Y-65820000D01*
X130865010Y-65809500D01*
X129564998Y-65809500D01*
X129564981Y-65809501D01*
X129462203Y-65820000D01*
X129462200Y-65820001D01*
X129295668Y-65875185D01*
X129295663Y-65875187D01*
X129146342Y-65967289D01*
X129022289Y-66091342D01*
X128930187Y-66240663D01*
X128930185Y-66240668D01*
X128918672Y-66275413D01*
X128875001Y-66407203D01*
X128875001Y-66407204D01*
X128875000Y-66407204D01*
X128864500Y-66509983D01*
X128864500Y-66585500D01*
X128844815Y-66652539D01*
X128792011Y-66698294D01*
X128740500Y-66709500D01*
X125934500Y-66709500D01*
X125867461Y-66689815D01*
X125821706Y-66637011D01*
X125810500Y-66585500D01*
X125810499Y-65142129D01*
X125810498Y-65142123D01*
X125804091Y-65082516D01*
X125753797Y-64947671D01*
X125753793Y-64947664D01*
X125667547Y-64832455D01*
X125667544Y-64832452D01*
X125552335Y-64746206D01*
X125552328Y-64746202D01*
X125417482Y-64695908D01*
X125417483Y-64695908D01*
X125357883Y-64689501D01*
X125357881Y-64689500D01*
X125357873Y-64689500D01*
X125357864Y-64689500D01*
X123562129Y-64689500D01*
X123562123Y-64689501D01*
X123502516Y-64695908D01*
X123367671Y-64746202D01*
X123367664Y-64746206D01*
X123252455Y-64832452D01*
X123252452Y-64832455D01*
X123166206Y-64947664D01*
X123166203Y-64947669D01*
X123117189Y-65079083D01*
X123075317Y-65135016D01*
X123009853Y-65159433D01*
X122941580Y-65144581D01*
X122913326Y-65123430D01*
X122791402Y-65001506D01*
X122791395Y-65001501D01*
X122597834Y-64865967D01*
X122597830Y-64865965D01*
X122597830Y-64865964D01*
X122383663Y-64766097D01*
X122383659Y-64766096D01*
X122383655Y-64766094D01*
X122155413Y-64704938D01*
X122155403Y-64704936D01*
X121920001Y-64684341D01*
X121919999Y-64684341D01*
X121684596Y-64704936D01*
X121684586Y-64704938D01*
X121456344Y-64766094D01*
X121456335Y-64766098D01*
X121242171Y-64865964D01*
X121242169Y-64865965D01*
X121048597Y-65001505D01*
X120881505Y-65168597D01*
X120751575Y-65354158D01*
X120696998Y-65397783D01*
X120627500Y-65404977D01*
X120565145Y-65373454D01*
X120548425Y-65354158D01*
X120418494Y-65168597D01*
X120251402Y-65001506D01*
X120251395Y-65001501D01*
X120057834Y-64865967D01*
X120057830Y-64865965D01*
X120057829Y-64865964D01*
X119843663Y-64766097D01*
X119843659Y-64766096D01*
X119843655Y-64766094D01*
X119615413Y-64704938D01*
X119615403Y-64704936D01*
X119380001Y-64684341D01*
X119379999Y-64684341D01*
X119144596Y-64704936D01*
X119144586Y-64704938D01*
X118916344Y-64766094D01*
X118916335Y-64766098D01*
X118702171Y-64865964D01*
X118702169Y-64865965D01*
X118508597Y-65001505D01*
X118341508Y-65168594D01*
X118211574Y-65354159D01*
X118156997Y-65397784D01*
X118087498Y-65404976D01*
X118025144Y-65373454D01*
X118008424Y-65354158D01*
X117878494Y-65168597D01*
X117711402Y-65001506D01*
X117711395Y-65001501D01*
X117517834Y-64865967D01*
X117517830Y-64865965D01*
X117517830Y-64865964D01*
X117303663Y-64766097D01*
X117303659Y-64766096D01*
X117303655Y-64766094D01*
X117075413Y-64704938D01*
X117075403Y-64704936D01*
X116840001Y-64684341D01*
X116839999Y-64684341D01*
X116604596Y-64704936D01*
X116604586Y-64704938D01*
X116376344Y-64766094D01*
X116376335Y-64766098D01*
X116162171Y-64865964D01*
X116162169Y-64865965D01*
X115968597Y-65001505D01*
X115801505Y-65168597D01*
X115671575Y-65354158D01*
X115616998Y-65397783D01*
X115547500Y-65404977D01*
X115485145Y-65373454D01*
X115468425Y-65354158D01*
X115338494Y-65168597D01*
X115171402Y-65001506D01*
X115171395Y-65001501D01*
X114977834Y-64865967D01*
X114977830Y-64865965D01*
X114977829Y-64865964D01*
X114763663Y-64766097D01*
X114763659Y-64766096D01*
X114763655Y-64766094D01*
X114535413Y-64704938D01*
X114535403Y-64704936D01*
X114300001Y-64684341D01*
X114299999Y-64684341D01*
X114064596Y-64704936D01*
X114064586Y-64704938D01*
X113836344Y-64766094D01*
X113836335Y-64766098D01*
X113622171Y-64865964D01*
X113622169Y-64865965D01*
X113428597Y-65001505D01*
X113261505Y-65168597D01*
X113131575Y-65354158D01*
X113076998Y-65397783D01*
X113007500Y-65404977D01*
X112945145Y-65373454D01*
X112928425Y-65354158D01*
X112798494Y-65168597D01*
X112631402Y-65001506D01*
X112631395Y-65001501D01*
X112437834Y-64865967D01*
X112437830Y-64865965D01*
X112437830Y-64865964D01*
X112223663Y-64766097D01*
X112223659Y-64766096D01*
X112223655Y-64766094D01*
X111995413Y-64704938D01*
X111995403Y-64704936D01*
X111760001Y-64684341D01*
X111759999Y-64684341D01*
X111524596Y-64704936D01*
X111524586Y-64704938D01*
X111296344Y-64766094D01*
X111296335Y-64766098D01*
X111082171Y-64865964D01*
X111082169Y-64865965D01*
X110888597Y-65001505D01*
X110721505Y-65168597D01*
X110591575Y-65354158D01*
X110536998Y-65397783D01*
X110467500Y-65404977D01*
X110405145Y-65373454D01*
X110388425Y-65354158D01*
X110258494Y-65168597D01*
X110091402Y-65001506D01*
X110091395Y-65001501D01*
X109897834Y-64865967D01*
X109897830Y-64865965D01*
X109897829Y-64865964D01*
X109683663Y-64766097D01*
X109683659Y-64766096D01*
X109683655Y-64766094D01*
X109455413Y-64704938D01*
X109455403Y-64704936D01*
X109220001Y-64684341D01*
X109219999Y-64684341D01*
X108984596Y-64704936D01*
X108984586Y-64704938D01*
X108756344Y-64766094D01*
X108756335Y-64766098D01*
X108542171Y-64865964D01*
X108542169Y-64865965D01*
X108348597Y-65001505D01*
X108181505Y-65168597D01*
X108051575Y-65354158D01*
X107996998Y-65397783D01*
X107927500Y-65404977D01*
X107865145Y-65373454D01*
X107848425Y-65354158D01*
X107718494Y-65168597D01*
X107551402Y-65001506D01*
X107551395Y-65001501D01*
X107357834Y-64865967D01*
X107357830Y-64865965D01*
X107357830Y-64865964D01*
X107143663Y-64766097D01*
X107143659Y-64766096D01*
X107143655Y-64766094D01*
X106915413Y-64704938D01*
X106915403Y-64704936D01*
X106680001Y-64684341D01*
X106679999Y-64684341D01*
X106444596Y-64704936D01*
X106444586Y-64704938D01*
X106216344Y-64766094D01*
X106216335Y-64766098D01*
X106002171Y-64865964D01*
X106002169Y-64865965D01*
X105808597Y-65001505D01*
X105641508Y-65168594D01*
X105511574Y-65354159D01*
X105456997Y-65397784D01*
X105387498Y-65404976D01*
X105325144Y-65373454D01*
X105308424Y-65354158D01*
X105178494Y-65168597D01*
X105011402Y-65001506D01*
X105011395Y-65001501D01*
X104817834Y-64865967D01*
X104817830Y-64865965D01*
X104817830Y-64865964D01*
X104603663Y-64766097D01*
X104603659Y-64766096D01*
X104603655Y-64766094D01*
X104375413Y-64704938D01*
X104375403Y-64704936D01*
X104140001Y-64684341D01*
X104139999Y-64684341D01*
X103904596Y-64704936D01*
X103904586Y-64704938D01*
X103676344Y-64766094D01*
X103676335Y-64766098D01*
X103462171Y-64865964D01*
X103462169Y-64865965D01*
X103268597Y-65001505D01*
X103101505Y-65168597D01*
X102971575Y-65354158D01*
X102916998Y-65397783D01*
X102847500Y-65404977D01*
X102785145Y-65373454D01*
X102768425Y-65354158D01*
X102638494Y-65168597D01*
X102471402Y-65001506D01*
X102471395Y-65001501D01*
X102277834Y-64865967D01*
X102277830Y-64865965D01*
X102277829Y-64865964D01*
X102063663Y-64766097D01*
X102063659Y-64766096D01*
X102063655Y-64766094D01*
X101835413Y-64704938D01*
X101835403Y-64704936D01*
X101600001Y-64684341D01*
X101599999Y-64684341D01*
X101364596Y-64704936D01*
X101364586Y-64704938D01*
X101136344Y-64766094D01*
X101136335Y-64766098D01*
X100922171Y-64865964D01*
X100922169Y-64865965D01*
X100728597Y-65001505D01*
X100561505Y-65168597D01*
X100425965Y-65362169D01*
X100425964Y-65362171D01*
X100326098Y-65576335D01*
X100326094Y-65576344D01*
X100264938Y-65804586D01*
X100264936Y-65804596D01*
X100244341Y-66039999D01*
X100244341Y-66040000D01*
X96004127Y-66040000D01*
X95927578Y-65986399D01*
X95713492Y-65886570D01*
X95713486Y-65886567D01*
X95500000Y-65829364D01*
X95499999Y-66874498D01*
X95392315Y-66825320D01*
X95285763Y-66810000D01*
X95214237Y-66810000D01*
X95107685Y-66825320D01*
X95000000Y-66874498D01*
X95000000Y-65829364D01*
X94999999Y-65829364D01*
X94786513Y-65886567D01*
X94786507Y-65886570D01*
X94572422Y-65986399D01*
X94572420Y-65986400D01*
X94378926Y-66121886D01*
X94231668Y-66269144D01*
X94170345Y-66302628D01*
X94100653Y-66297644D01*
X94044720Y-66255772D01*
X94038448Y-66246558D01*
X93942712Y-66091344D01*
X93818657Y-65967289D01*
X93818656Y-65967288D01*
X93669334Y-65875186D01*
X93502797Y-65820001D01*
X93502795Y-65820000D01*
X93400010Y-65809500D01*
X92099998Y-65809500D01*
X92099981Y-65809501D01*
X91997203Y-65820000D01*
X91997200Y-65820001D01*
X91830668Y-65875185D01*
X91830663Y-65875187D01*
X91681342Y-65967289D01*
X91557289Y-66091342D01*
X91465187Y-66240663D01*
X91465185Y-66240668D01*
X91453672Y-66275413D01*
X91410001Y-66407203D01*
X91410001Y-66407204D01*
X91410000Y-66407204D01*
X91399500Y-66509983D01*
X91399500Y-68110001D01*
X89200500Y-68110001D01*
X89200500Y-66041877D01*
X89200613Y-66038133D01*
X89204898Y-65967288D01*
X89216601Y-65773797D01*
X89217505Y-65766365D01*
X89264901Y-65507739D01*
X89266691Y-65500473D01*
X89344918Y-65249432D01*
X89347569Y-65242445D01*
X89392720Y-65142123D01*
X89455486Y-65002662D01*
X89458956Y-64996049D01*
X89594993Y-64771019D01*
X89599236Y-64764872D01*
X89761406Y-64557877D01*
X89766350Y-64552296D01*
X89952296Y-64366350D01*
X89957877Y-64361406D01*
X90164872Y-64199236D01*
X90171019Y-64194993D01*
X90396049Y-64058956D01*
X90402662Y-64055486D01*
X90642443Y-63947569D01*
X90649432Y-63944918D01*
X90900473Y-63866691D01*
X90907739Y-63864901D01*
X91166365Y-63817505D01*
X91173797Y-63816601D01*
X91374717Y-63804448D01*
X91438134Y-63800613D01*
X91441878Y-63800500D01*
X91487595Y-63800500D01*
X134572405Y-63800500D01*
X134618122Y-63800500D01*
X134621866Y-63800613D01*
G37*
%TD.AperFunction*%
%TD*%
M02*
