M48
; DRILL file {KiCad 7.0.6} date Sat Jan 20 12:46:27 2024
; FORMAT={-:-/ absolute / metric / decimal}
; #@! TF.CreationDate,2024-01-20T12:46:27+09:00
; #@! TF.GenerationSoftware,Kicad,Pcbnew,7.0.6
; #@! TF.FileFunction,MixedPlating,1,2
FMAT,2
METRIC
; #@! TA.AperFunction,Plated,PTH,ComponentDrill
T1C0.950
; #@! TA.AperFunction,Plated,PTH,ComponentDrill
T2C1.000
%
G90
G05
T1
X103.204Y-89.408
X103.204Y-97.045
X105.704Y-89.408
X105.704Y-97.045
X108.204Y-89.408
X108.204Y-97.045
X110.704Y-89.408
X110.704Y-97.045
X113.204Y-89.408
X113.204Y-97.045
X119.42Y-74.168
X119.42Y-81.771
X119.42Y-89.645
X121.92Y-74.168
X121.92Y-81.771
X121.92Y-89.645
X124.42Y-74.168
X124.42Y-81.771
X124.42Y-89.645
T2
X91.44Y-73.66
X91.44Y-76.2
X91.44Y-78.74
X91.44Y-81.28
X91.44Y-83.82
X91.44Y-86.36
X91.44Y-88.9
X91.44Y-91.44
X92.75Y-67.31
X93.98Y-73.66
X93.98Y-76.2
X93.98Y-78.74
X93.98Y-81.28
X93.98Y-83.82
X93.98Y-86.36
X93.98Y-88.9
X93.98Y-91.44
X95.25Y-67.31
X96.52Y-73.66
X96.52Y-76.2
X96.52Y-78.74
X96.52Y-81.28
X96.52Y-83.82
X96.52Y-86.36
X96.52Y-88.9
X96.52Y-91.44
X101.6Y-66.04
X101.6Y-68.58
X104.14Y-66.04
X104.14Y-68.58
X106.68Y-66.04
X106.68Y-68.58
X109.22Y-66.04
X109.22Y-68.58
X110.49Y-81.28
X110.53Y-73.66
X111.76Y-66.04
X111.76Y-68.58
X112.99Y-81.28
X113.03Y-73.66
X114.3Y-66.04
X114.3Y-68.58
X116.84Y-66.04
X116.84Y-68.58
X119.38Y-66.04
X119.38Y-68.58
X121.92Y-66.04
X121.92Y-68.58
X124.46Y-66.04
X124.46Y-68.58
X129.54Y-73.66
X129.54Y-76.2
X129.54Y-78.74
X129.54Y-81.28
X129.54Y-83.82
X129.54Y-86.36
X129.54Y-88.9
X129.54Y-91.44
X130.215Y-67.31
X132.08Y-73.66
X132.08Y-76.2
X132.08Y-78.74
X132.08Y-81.28
X132.08Y-83.82
X132.08Y-86.36
X132.08Y-88.9
X132.08Y-91.44
X132.715Y-67.31
X134.62Y-73.66
X134.62Y-76.2
X134.62Y-78.74
X134.62Y-81.28
X134.62Y-83.82
X134.62Y-86.36
X134.62Y-88.9
X134.62Y-91.44
T0
M30
