%TF.GenerationSoftware,KiCad,Pcbnew,7.0.6*%
%TF.CreationDate,2024-01-20T12:46:22+09:00*%
%TF.ProjectId,RoboMasterHatBoard,526f626f-4d61-4737-9465-72486174426f,rev?*%
%TF.SameCoordinates,Original*%
%TF.FileFunction,Soldermask,Bot*%
%TF.FilePolarity,Negative*%
%FSLAX46Y46*%
G04 Gerber Fmt 4.6, Leading zero omitted, Abs format (unit mm)*
G04 Created by KiCad (PCBNEW 7.0.6) date 2024-01-20 12:46:22*
%MOMM*%
%LPD*%
G01*
G04 APERTURE LIST*
G04 Aperture macros list*
%AMRoundRect*
0 Rectangle with rounded corners*
0 $1 Rounding radius*
0 $2 $3 $4 $5 $6 $7 $8 $9 X,Y pos of 4 corners*
0 Add a 4 corners polygon primitive as box body*
4,1,4,$2,$3,$4,$5,$6,$7,$8,$9,$2,$3,0*
0 Add four circle primitives for the rounded corners*
1,1,$1+$1,$2,$3*
1,1,$1+$1,$4,$5*
1,1,$1+$1,$6,$7*
1,1,$1+$1,$8,$9*
0 Add four rect primitives between the rounded corners*
20,1,$1+$1,$2,$3,$4,$5,0*
20,1,$1+$1,$4,$5,$6,$7,0*
20,1,$1+$1,$6,$7,$8,$9,0*
20,1,$1+$1,$8,$9,$2,$3,0*%
G04 Aperture macros list end*
%ADD10RoundRect,0.250000X-0.600000X-0.750000X0.600000X-0.750000X0.600000X0.750000X-0.600000X0.750000X0*%
%ADD11O,1.700000X2.000000*%
%ADD12RoundRect,0.250000X-0.600000X-0.725000X0.600000X-0.725000X0.600000X0.725000X-0.600000X0.725000X0*%
%ADD13O,1.700000X1.950000*%
%ADD14RoundRect,0.250000X0.600000X0.725000X-0.600000X0.725000X-0.600000X-0.725000X0.600000X-0.725000X0*%
%ADD15R,1.700000X1.700000*%
%ADD16O,1.700000X1.700000*%
G04 APERTURE END LIST*
D10*
%TO.C,J17*%
X92750000Y-67310000D03*
D11*
X95250000Y-67310000D03*
%TD*%
D10*
%TO.C,J16*%
X130215000Y-67310000D03*
D11*
X132715000Y-67310000D03*
%TD*%
D12*
%TO.C,J14*%
X119420000Y-74168000D03*
D13*
X121920000Y-74168000D03*
X124420000Y-74168000D03*
%TD*%
D10*
%TO.C,J9*%
X110490000Y-81280000D03*
D11*
X112990000Y-81280000D03*
%TD*%
D10*
%TO.C,J10*%
X110530000Y-73660000D03*
D11*
X113030000Y-73660000D03*
%TD*%
D14*
%TO.C,J13*%
X113204000Y-97045000D03*
D13*
X110704000Y-97045000D03*
X108204000Y-97045000D03*
X105704000Y-97045000D03*
X103204000Y-97045000D03*
%TD*%
D12*
%TO.C,J11*%
X119420000Y-89645000D03*
D13*
X121920000Y-89645000D03*
X124420000Y-89645000D03*
%TD*%
D14*
%TO.C,J12*%
X113204000Y-89408000D03*
D13*
X110704000Y-89408000D03*
X108204000Y-89408000D03*
X105704000Y-89408000D03*
X103204000Y-89408000D03*
%TD*%
D12*
%TO.C,J15*%
X119420000Y-81771000D03*
D13*
X121920000Y-81771000D03*
X124420000Y-81771000D03*
%TD*%
D15*
%TO.C,J4*%
X91440000Y-73660000D03*
D16*
X91440000Y-76200000D03*
X91440000Y-78740000D03*
X91440000Y-81280000D03*
X91440000Y-83820000D03*
X91440000Y-86360000D03*
X91440000Y-88900000D03*
X91440000Y-91440000D03*
%TD*%
D15*
%TO.C,J6*%
X96520000Y-73660000D03*
D16*
X96520000Y-76200000D03*
X96520000Y-78740000D03*
X96520000Y-81280000D03*
X96520000Y-83820000D03*
X96520000Y-86360000D03*
X96520000Y-88900000D03*
X96520000Y-91440000D03*
%TD*%
D15*
%TO.C,J1*%
X129540000Y-73660000D03*
D16*
X129540000Y-76200000D03*
X129540000Y-78740000D03*
X129540000Y-81280000D03*
X129540000Y-83820000D03*
X129540000Y-86360000D03*
X129540000Y-88900000D03*
X129540000Y-91440000D03*
%TD*%
D15*
%TO.C,J2*%
X132080000Y-73660000D03*
D16*
X132080000Y-76200000D03*
X132080000Y-78740000D03*
X132080000Y-81280000D03*
X132080000Y-83820000D03*
X132080000Y-86360000D03*
X132080000Y-88900000D03*
X132080000Y-91440000D03*
%TD*%
D15*
%TO.C,J3*%
X134620000Y-73660000D03*
D16*
X134620000Y-76200000D03*
X134620000Y-78740000D03*
X134620000Y-81280000D03*
X134620000Y-83820000D03*
X134620000Y-86360000D03*
X134620000Y-88900000D03*
X134620000Y-91440000D03*
%TD*%
D15*
%TO.C,J8*%
X124460000Y-66040000D03*
D16*
X121920000Y-66040000D03*
X119380000Y-66040000D03*
X116840000Y-66040000D03*
X114300000Y-66040000D03*
X111760000Y-66040000D03*
X109220000Y-66040000D03*
X106680000Y-66040000D03*
X104140000Y-66040000D03*
X101600000Y-66040000D03*
%TD*%
D15*
%TO.C,J5*%
X93980000Y-73660000D03*
D16*
X93980000Y-76200000D03*
X93980000Y-78740000D03*
X93980000Y-81280000D03*
X93980000Y-83820000D03*
X93980000Y-86360000D03*
X93980000Y-88900000D03*
X93980000Y-91440000D03*
%TD*%
D15*
%TO.C,J7*%
X124460000Y-68580000D03*
D16*
X121920000Y-68580000D03*
X119380000Y-68580000D03*
X116840000Y-68580000D03*
X114300000Y-68580000D03*
X111760000Y-68580000D03*
X109220000Y-68580000D03*
X106680000Y-68580000D03*
X104140000Y-68580000D03*
X101600000Y-68580000D03*
%TD*%
M02*
