%TF.GenerationSoftware,KiCad,Pcbnew,7.0.6*%
%TF.CreationDate,2024-01-20T12:46:22+09:00*%
%TF.ProjectId,RoboMasterHatBoard,526f626f-4d61-4737-9465-72486174426f,rev?*%
%TF.SameCoordinates,Original*%
%TF.FileFunction,Legend,Bot*%
%TF.FilePolarity,Positive*%
%FSLAX46Y46*%
G04 Gerber Fmt 4.6, Leading zero omitted, Abs format (unit mm)*
G04 Created by KiCad (PCBNEW 7.0.6) date 2024-01-20 12:46:22*
%MOMM*%
%LPD*%
G01*
G04 APERTURE LIST*
%ADD10C,0.150000*%
%ADD11C,0.120000*%
G04 APERTURE END LIST*
D10*
X101775180Y-87356792D02*
X102251371Y-87690125D01*
X101775180Y-87928220D02*
X102775180Y-87928220D01*
X102775180Y-87928220D02*
X102775180Y-87547268D01*
X102775180Y-87547268D02*
X102727561Y-87452030D01*
X102727561Y-87452030D02*
X102679942Y-87404411D01*
X102679942Y-87404411D02*
X102584704Y-87356792D01*
X102584704Y-87356792D02*
X102441847Y-87356792D01*
X102441847Y-87356792D02*
X102346609Y-87404411D01*
X102346609Y-87404411D02*
X102298990Y-87452030D01*
X102298990Y-87452030D02*
X102251371Y-87547268D01*
X102251371Y-87547268D02*
X102251371Y-87928220D01*
X101775180Y-86785363D02*
X101822800Y-86880601D01*
X101822800Y-86880601D02*
X101870419Y-86928220D01*
X101870419Y-86928220D02*
X101965657Y-86975839D01*
X101965657Y-86975839D02*
X102251371Y-86975839D01*
X102251371Y-86975839D02*
X102346609Y-86928220D01*
X102346609Y-86928220D02*
X102394228Y-86880601D01*
X102394228Y-86880601D02*
X102441847Y-86785363D01*
X102441847Y-86785363D02*
X102441847Y-86642506D01*
X102441847Y-86642506D02*
X102394228Y-86547268D01*
X102394228Y-86547268D02*
X102346609Y-86499649D01*
X102346609Y-86499649D02*
X102251371Y-86452030D01*
X102251371Y-86452030D02*
X101965657Y-86452030D01*
X101965657Y-86452030D02*
X101870419Y-86499649D01*
X101870419Y-86499649D02*
X101822800Y-86547268D01*
X101822800Y-86547268D02*
X101775180Y-86642506D01*
X101775180Y-86642506D02*
X101775180Y-86785363D01*
X101775180Y-86023458D02*
X102775180Y-86023458D01*
X102394228Y-86023458D02*
X102441847Y-85928220D01*
X102441847Y-85928220D02*
X102441847Y-85737744D01*
X102441847Y-85737744D02*
X102394228Y-85642506D01*
X102394228Y-85642506D02*
X102346609Y-85594887D01*
X102346609Y-85594887D02*
X102251371Y-85547268D01*
X102251371Y-85547268D02*
X101965657Y-85547268D01*
X101965657Y-85547268D02*
X101870419Y-85594887D01*
X101870419Y-85594887D02*
X101822800Y-85642506D01*
X101822800Y-85642506D02*
X101775180Y-85737744D01*
X101775180Y-85737744D02*
X101775180Y-85928220D01*
X101775180Y-85928220D02*
X101822800Y-86023458D01*
X101775180Y-84975839D02*
X101822800Y-85071077D01*
X101822800Y-85071077D02*
X101870419Y-85118696D01*
X101870419Y-85118696D02*
X101965657Y-85166315D01*
X101965657Y-85166315D02*
X102251371Y-85166315D01*
X102251371Y-85166315D02*
X102346609Y-85118696D01*
X102346609Y-85118696D02*
X102394228Y-85071077D01*
X102394228Y-85071077D02*
X102441847Y-84975839D01*
X102441847Y-84975839D02*
X102441847Y-84832982D01*
X102441847Y-84832982D02*
X102394228Y-84737744D01*
X102394228Y-84737744D02*
X102346609Y-84690125D01*
X102346609Y-84690125D02*
X102251371Y-84642506D01*
X102251371Y-84642506D02*
X101965657Y-84642506D01*
X101965657Y-84642506D02*
X101870419Y-84690125D01*
X101870419Y-84690125D02*
X101822800Y-84737744D01*
X101822800Y-84737744D02*
X101775180Y-84832982D01*
X101775180Y-84832982D02*
X101775180Y-84975839D01*
X101775180Y-84213934D02*
X102775180Y-84213934D01*
X102775180Y-84213934D02*
X102060895Y-83880601D01*
X102060895Y-83880601D02*
X102775180Y-83547268D01*
X102775180Y-83547268D02*
X101775180Y-83547268D01*
X101775180Y-82642506D02*
X102298990Y-82642506D01*
X102298990Y-82642506D02*
X102394228Y-82690125D01*
X102394228Y-82690125D02*
X102441847Y-82785363D01*
X102441847Y-82785363D02*
X102441847Y-82975839D01*
X102441847Y-82975839D02*
X102394228Y-83071077D01*
X101822800Y-82642506D02*
X101775180Y-82737744D01*
X101775180Y-82737744D02*
X101775180Y-82975839D01*
X101775180Y-82975839D02*
X101822800Y-83071077D01*
X101822800Y-83071077D02*
X101918038Y-83118696D01*
X101918038Y-83118696D02*
X102013276Y-83118696D01*
X102013276Y-83118696D02*
X102108514Y-83071077D01*
X102108514Y-83071077D02*
X102156133Y-82975839D01*
X102156133Y-82975839D02*
X102156133Y-82737744D01*
X102156133Y-82737744D02*
X102203752Y-82642506D01*
X101822800Y-82213934D02*
X101775180Y-82118696D01*
X101775180Y-82118696D02*
X101775180Y-81928220D01*
X101775180Y-81928220D02*
X101822800Y-81832982D01*
X101822800Y-81832982D02*
X101918038Y-81785363D01*
X101918038Y-81785363D02*
X101965657Y-81785363D01*
X101965657Y-81785363D02*
X102060895Y-81832982D01*
X102060895Y-81832982D02*
X102108514Y-81928220D01*
X102108514Y-81928220D02*
X102108514Y-82071077D01*
X102108514Y-82071077D02*
X102156133Y-82166315D01*
X102156133Y-82166315D02*
X102251371Y-82213934D01*
X102251371Y-82213934D02*
X102298990Y-82213934D01*
X102298990Y-82213934D02*
X102394228Y-82166315D01*
X102394228Y-82166315D02*
X102441847Y-82071077D01*
X102441847Y-82071077D02*
X102441847Y-81928220D01*
X102441847Y-81928220D02*
X102394228Y-81832982D01*
X102441847Y-81499648D02*
X102441847Y-81118696D01*
X102775180Y-81356791D02*
X101918038Y-81356791D01*
X101918038Y-81356791D02*
X101822800Y-81309172D01*
X101822800Y-81309172D02*
X101775180Y-81213934D01*
X101775180Y-81213934D02*
X101775180Y-81118696D01*
X101822800Y-80404410D02*
X101775180Y-80499648D01*
X101775180Y-80499648D02*
X101775180Y-80690124D01*
X101775180Y-80690124D02*
X101822800Y-80785362D01*
X101822800Y-80785362D02*
X101918038Y-80832981D01*
X101918038Y-80832981D02*
X102298990Y-80832981D01*
X102298990Y-80832981D02*
X102394228Y-80785362D01*
X102394228Y-80785362D02*
X102441847Y-80690124D01*
X102441847Y-80690124D02*
X102441847Y-80499648D01*
X102441847Y-80499648D02*
X102394228Y-80404410D01*
X102394228Y-80404410D02*
X102298990Y-80356791D01*
X102298990Y-80356791D02*
X102203752Y-80356791D01*
X102203752Y-80356791D02*
X102108514Y-80832981D01*
X101775180Y-79928219D02*
X102441847Y-79928219D01*
X102251371Y-79928219D02*
X102346609Y-79880600D01*
X102346609Y-79880600D02*
X102394228Y-79832981D01*
X102394228Y-79832981D02*
X102441847Y-79737743D01*
X102441847Y-79737743D02*
X102441847Y-79642505D01*
X101775180Y-78547266D02*
X102775180Y-78547266D01*
X102298990Y-78547266D02*
X102298990Y-77975838D01*
X101775180Y-77975838D02*
X102775180Y-77975838D01*
X101775180Y-77071076D02*
X102298990Y-77071076D01*
X102298990Y-77071076D02*
X102394228Y-77118695D01*
X102394228Y-77118695D02*
X102441847Y-77213933D01*
X102441847Y-77213933D02*
X102441847Y-77404409D01*
X102441847Y-77404409D02*
X102394228Y-77499647D01*
X101822800Y-77071076D02*
X101775180Y-77166314D01*
X101775180Y-77166314D02*
X101775180Y-77404409D01*
X101775180Y-77404409D02*
X101822800Y-77499647D01*
X101822800Y-77499647D02*
X101918038Y-77547266D01*
X101918038Y-77547266D02*
X102013276Y-77547266D01*
X102013276Y-77547266D02*
X102108514Y-77499647D01*
X102108514Y-77499647D02*
X102156133Y-77404409D01*
X102156133Y-77404409D02*
X102156133Y-77166314D01*
X102156133Y-77166314D02*
X102203752Y-77071076D01*
X102441847Y-76737742D02*
X102441847Y-76356790D01*
X102775180Y-76594885D02*
X101918038Y-76594885D01*
X101918038Y-76594885D02*
X101822800Y-76547266D01*
X101822800Y-76547266D02*
X101775180Y-76452028D01*
X101775180Y-76452028D02*
X101775180Y-76356790D01*
X100165180Y-87928220D02*
X101165180Y-87928220D01*
X100784228Y-87928220D02*
X100831847Y-87832982D01*
X100831847Y-87832982D02*
X100831847Y-87642506D01*
X100831847Y-87642506D02*
X100784228Y-87547268D01*
X100784228Y-87547268D02*
X100736609Y-87499649D01*
X100736609Y-87499649D02*
X100641371Y-87452030D01*
X100641371Y-87452030D02*
X100355657Y-87452030D01*
X100355657Y-87452030D02*
X100260419Y-87499649D01*
X100260419Y-87499649D02*
X100212800Y-87547268D01*
X100212800Y-87547268D02*
X100165180Y-87642506D01*
X100165180Y-87642506D02*
X100165180Y-87832982D01*
X100165180Y-87832982D02*
X100212800Y-87928220D01*
X100165180Y-86880601D02*
X100212800Y-86975839D01*
X100212800Y-86975839D02*
X100260419Y-87023458D01*
X100260419Y-87023458D02*
X100355657Y-87071077D01*
X100355657Y-87071077D02*
X100641371Y-87071077D01*
X100641371Y-87071077D02*
X100736609Y-87023458D01*
X100736609Y-87023458D02*
X100784228Y-86975839D01*
X100784228Y-86975839D02*
X100831847Y-86880601D01*
X100831847Y-86880601D02*
X100831847Y-86737744D01*
X100831847Y-86737744D02*
X100784228Y-86642506D01*
X100784228Y-86642506D02*
X100736609Y-86594887D01*
X100736609Y-86594887D02*
X100641371Y-86547268D01*
X100641371Y-86547268D02*
X100355657Y-86547268D01*
X100355657Y-86547268D02*
X100260419Y-86594887D01*
X100260419Y-86594887D02*
X100212800Y-86642506D01*
X100212800Y-86642506D02*
X100165180Y-86737744D01*
X100165180Y-86737744D02*
X100165180Y-86880601D01*
X100165180Y-85690125D02*
X100688990Y-85690125D01*
X100688990Y-85690125D02*
X100784228Y-85737744D01*
X100784228Y-85737744D02*
X100831847Y-85832982D01*
X100831847Y-85832982D02*
X100831847Y-86023458D01*
X100831847Y-86023458D02*
X100784228Y-86118696D01*
X100212800Y-85690125D02*
X100165180Y-85785363D01*
X100165180Y-85785363D02*
X100165180Y-86023458D01*
X100165180Y-86023458D02*
X100212800Y-86118696D01*
X100212800Y-86118696D02*
X100308038Y-86166315D01*
X100308038Y-86166315D02*
X100403276Y-86166315D01*
X100403276Y-86166315D02*
X100498514Y-86118696D01*
X100498514Y-86118696D02*
X100546133Y-86023458D01*
X100546133Y-86023458D02*
X100546133Y-85785363D01*
X100546133Y-85785363D02*
X100593752Y-85690125D01*
X100165180Y-85213934D02*
X100831847Y-85213934D01*
X100641371Y-85213934D02*
X100736609Y-85166315D01*
X100736609Y-85166315D02*
X100784228Y-85118696D01*
X100784228Y-85118696D02*
X100831847Y-85023458D01*
X100831847Y-85023458D02*
X100831847Y-84928220D01*
X100165180Y-84166315D02*
X101165180Y-84166315D01*
X100212800Y-84166315D02*
X100165180Y-84261553D01*
X100165180Y-84261553D02*
X100165180Y-84452029D01*
X100165180Y-84452029D02*
X100212800Y-84547267D01*
X100212800Y-84547267D02*
X100260419Y-84594886D01*
X100260419Y-84594886D02*
X100355657Y-84642505D01*
X100355657Y-84642505D02*
X100641371Y-84642505D01*
X100641371Y-84642505D02*
X100736609Y-84594886D01*
X100736609Y-84594886D02*
X100784228Y-84547267D01*
X100784228Y-84547267D02*
X100831847Y-84452029D01*
X100831847Y-84452029D02*
X100831847Y-84261553D01*
X100831847Y-84261553D02*
X100784228Y-84166315D01*
X100831847Y-83023457D02*
X100165180Y-82785362D01*
X100165180Y-82785362D02*
X100831847Y-82547267D01*
X101165180Y-81975838D02*
X101165180Y-81880600D01*
X101165180Y-81880600D02*
X101117561Y-81785362D01*
X101117561Y-81785362D02*
X101069942Y-81737743D01*
X101069942Y-81737743D02*
X100974704Y-81690124D01*
X100974704Y-81690124D02*
X100784228Y-81642505D01*
X100784228Y-81642505D02*
X100546133Y-81642505D01*
X100546133Y-81642505D02*
X100355657Y-81690124D01*
X100355657Y-81690124D02*
X100260419Y-81737743D01*
X100260419Y-81737743D02*
X100212800Y-81785362D01*
X100212800Y-81785362D02*
X100165180Y-81880600D01*
X100165180Y-81880600D02*
X100165180Y-81975838D01*
X100165180Y-81975838D02*
X100212800Y-82071076D01*
X100212800Y-82071076D02*
X100260419Y-82118695D01*
X100260419Y-82118695D02*
X100355657Y-82166314D01*
X100355657Y-82166314D02*
X100546133Y-82213933D01*
X100546133Y-82213933D02*
X100784228Y-82213933D01*
X100784228Y-82213933D02*
X100974704Y-82166314D01*
X100974704Y-82166314D02*
X101069942Y-82118695D01*
X101069942Y-82118695D02*
X101117561Y-82071076D01*
X101117561Y-82071076D02*
X101165180Y-81975838D01*
X100260419Y-81213933D02*
X100212800Y-81166314D01*
X100212800Y-81166314D02*
X100165180Y-81213933D01*
X100165180Y-81213933D02*
X100212800Y-81261552D01*
X100212800Y-81261552D02*
X100260419Y-81213933D01*
X100260419Y-81213933D02*
X100165180Y-81213933D01*
X100165180Y-80213934D02*
X100165180Y-80785362D01*
X100165180Y-80499648D02*
X101165180Y-80499648D01*
X101165180Y-80499648D02*
X101022323Y-80594886D01*
X101022323Y-80594886D02*
X100927085Y-80690124D01*
X100927085Y-80690124D02*
X100879466Y-80785362D01*
X98555180Y-87499649D02*
X99555180Y-87499649D01*
X98602800Y-87499649D02*
X98555180Y-87594887D01*
X98555180Y-87594887D02*
X98555180Y-87785363D01*
X98555180Y-87785363D02*
X98602800Y-87880601D01*
X98602800Y-87880601D02*
X98650419Y-87928220D01*
X98650419Y-87928220D02*
X98745657Y-87975839D01*
X98745657Y-87975839D02*
X99031371Y-87975839D01*
X99031371Y-87975839D02*
X99126609Y-87928220D01*
X99126609Y-87928220D02*
X99174228Y-87880601D01*
X99174228Y-87880601D02*
X99221847Y-87785363D01*
X99221847Y-87785363D02*
X99221847Y-87594887D01*
X99221847Y-87594887D02*
X99174228Y-87499649D01*
X98602800Y-86642506D02*
X98555180Y-86737744D01*
X98555180Y-86737744D02*
X98555180Y-86928220D01*
X98555180Y-86928220D02*
X98602800Y-87023458D01*
X98602800Y-87023458D02*
X98698038Y-87071077D01*
X98698038Y-87071077D02*
X99078990Y-87071077D01*
X99078990Y-87071077D02*
X99174228Y-87023458D01*
X99174228Y-87023458D02*
X99221847Y-86928220D01*
X99221847Y-86928220D02*
X99221847Y-86737744D01*
X99221847Y-86737744D02*
X99174228Y-86642506D01*
X99174228Y-86642506D02*
X99078990Y-86594887D01*
X99078990Y-86594887D02*
X98983752Y-86594887D01*
X98983752Y-86594887D02*
X98888514Y-87071077D01*
X98602800Y-86213934D02*
X98555180Y-86118696D01*
X98555180Y-86118696D02*
X98555180Y-85928220D01*
X98555180Y-85928220D02*
X98602800Y-85832982D01*
X98602800Y-85832982D02*
X98698038Y-85785363D01*
X98698038Y-85785363D02*
X98745657Y-85785363D01*
X98745657Y-85785363D02*
X98840895Y-85832982D01*
X98840895Y-85832982D02*
X98888514Y-85928220D01*
X98888514Y-85928220D02*
X98888514Y-86071077D01*
X98888514Y-86071077D02*
X98936133Y-86166315D01*
X98936133Y-86166315D02*
X99031371Y-86213934D01*
X99031371Y-86213934D02*
X99078990Y-86213934D01*
X99078990Y-86213934D02*
X99174228Y-86166315D01*
X99174228Y-86166315D02*
X99221847Y-86071077D01*
X99221847Y-86071077D02*
X99221847Y-85928220D01*
X99221847Y-85928220D02*
X99174228Y-85832982D01*
X98555180Y-85356791D02*
X99221847Y-85356791D01*
X99555180Y-85356791D02*
X99507561Y-85404410D01*
X99507561Y-85404410D02*
X99459942Y-85356791D01*
X99459942Y-85356791D02*
X99507561Y-85309172D01*
X99507561Y-85309172D02*
X99555180Y-85356791D01*
X99555180Y-85356791D02*
X99459942Y-85356791D01*
X99221847Y-84452030D02*
X98412323Y-84452030D01*
X98412323Y-84452030D02*
X98317085Y-84499649D01*
X98317085Y-84499649D02*
X98269466Y-84547268D01*
X98269466Y-84547268D02*
X98221847Y-84642506D01*
X98221847Y-84642506D02*
X98221847Y-84785363D01*
X98221847Y-84785363D02*
X98269466Y-84880601D01*
X98602800Y-84452030D02*
X98555180Y-84547268D01*
X98555180Y-84547268D02*
X98555180Y-84737744D01*
X98555180Y-84737744D02*
X98602800Y-84832982D01*
X98602800Y-84832982D02*
X98650419Y-84880601D01*
X98650419Y-84880601D02*
X98745657Y-84928220D01*
X98745657Y-84928220D02*
X99031371Y-84928220D01*
X99031371Y-84928220D02*
X99126609Y-84880601D01*
X99126609Y-84880601D02*
X99174228Y-84832982D01*
X99174228Y-84832982D02*
X99221847Y-84737744D01*
X99221847Y-84737744D02*
X99221847Y-84547268D01*
X99221847Y-84547268D02*
X99174228Y-84452030D01*
X99221847Y-83975839D02*
X98555180Y-83975839D01*
X99126609Y-83975839D02*
X99174228Y-83928220D01*
X99174228Y-83928220D02*
X99221847Y-83832982D01*
X99221847Y-83832982D02*
X99221847Y-83690125D01*
X99221847Y-83690125D02*
X99174228Y-83594887D01*
X99174228Y-83594887D02*
X99078990Y-83547268D01*
X99078990Y-83547268D02*
X98555180Y-83547268D01*
X98602800Y-82690125D02*
X98555180Y-82785363D01*
X98555180Y-82785363D02*
X98555180Y-82975839D01*
X98555180Y-82975839D02*
X98602800Y-83071077D01*
X98602800Y-83071077D02*
X98698038Y-83118696D01*
X98698038Y-83118696D02*
X99078990Y-83118696D01*
X99078990Y-83118696D02*
X99174228Y-83071077D01*
X99174228Y-83071077D02*
X99221847Y-82975839D01*
X99221847Y-82975839D02*
X99221847Y-82785363D01*
X99221847Y-82785363D02*
X99174228Y-82690125D01*
X99174228Y-82690125D02*
X99078990Y-82642506D01*
X99078990Y-82642506D02*
X98983752Y-82642506D01*
X98983752Y-82642506D02*
X98888514Y-83118696D01*
X98555180Y-81785363D02*
X99555180Y-81785363D01*
X98602800Y-81785363D02*
X98555180Y-81880601D01*
X98555180Y-81880601D02*
X98555180Y-82071077D01*
X98555180Y-82071077D02*
X98602800Y-82166315D01*
X98602800Y-82166315D02*
X98650419Y-82213934D01*
X98650419Y-82213934D02*
X98745657Y-82261553D01*
X98745657Y-82261553D02*
X99031371Y-82261553D01*
X99031371Y-82261553D02*
X99126609Y-82213934D01*
X99126609Y-82213934D02*
X99174228Y-82166315D01*
X99174228Y-82166315D02*
X99221847Y-82071077D01*
X99221847Y-82071077D02*
X99221847Y-81880601D01*
X99221847Y-81880601D02*
X99174228Y-81785363D01*
X98555180Y-80547267D02*
X99555180Y-80547267D01*
X99174228Y-80547267D02*
X99221847Y-80452029D01*
X99221847Y-80452029D02*
X99221847Y-80261553D01*
X99221847Y-80261553D02*
X99174228Y-80166315D01*
X99174228Y-80166315D02*
X99126609Y-80118696D01*
X99126609Y-80118696D02*
X99031371Y-80071077D01*
X99031371Y-80071077D02*
X98745657Y-80071077D01*
X98745657Y-80071077D02*
X98650419Y-80118696D01*
X98650419Y-80118696D02*
X98602800Y-80166315D01*
X98602800Y-80166315D02*
X98555180Y-80261553D01*
X98555180Y-80261553D02*
X98555180Y-80452029D01*
X98555180Y-80452029D02*
X98602800Y-80547267D01*
X99221847Y-79737743D02*
X98555180Y-79499648D01*
X99221847Y-79261553D02*
X98555180Y-79499648D01*
X98555180Y-79499648D02*
X98317085Y-79594886D01*
X98317085Y-79594886D02*
X98269466Y-79642505D01*
X98269466Y-79642505D02*
X98221847Y-79737743D01*
X98555180Y-78118695D02*
X99221847Y-78118695D01*
X99126609Y-78118695D02*
X99174228Y-78071076D01*
X99174228Y-78071076D02*
X99221847Y-77975838D01*
X99221847Y-77975838D02*
X99221847Y-77832981D01*
X99221847Y-77832981D02*
X99174228Y-77737743D01*
X99174228Y-77737743D02*
X99078990Y-77690124D01*
X99078990Y-77690124D02*
X98555180Y-77690124D01*
X99078990Y-77690124D02*
X99174228Y-77642505D01*
X99174228Y-77642505D02*
X99221847Y-77547267D01*
X99221847Y-77547267D02*
X99221847Y-77404410D01*
X99221847Y-77404410D02*
X99174228Y-77309171D01*
X99174228Y-77309171D02*
X99078990Y-77261552D01*
X99078990Y-77261552D02*
X98555180Y-77261552D01*
X98555180Y-76785362D02*
X99221847Y-76785362D01*
X99126609Y-76785362D02*
X99174228Y-76737743D01*
X99174228Y-76737743D02*
X99221847Y-76642505D01*
X99221847Y-76642505D02*
X99221847Y-76499648D01*
X99221847Y-76499648D02*
X99174228Y-76404410D01*
X99174228Y-76404410D02*
X99078990Y-76356791D01*
X99078990Y-76356791D02*
X98555180Y-76356791D01*
X99078990Y-76356791D02*
X99174228Y-76309172D01*
X99174228Y-76309172D02*
X99221847Y-76213934D01*
X99221847Y-76213934D02*
X99221847Y-76071077D01*
X99221847Y-76071077D02*
X99174228Y-75975838D01*
X99174228Y-75975838D02*
X99078990Y-75928219D01*
X99078990Y-75928219D02*
X98555180Y-75928219D01*
X98555180Y-75023458D02*
X99078990Y-75023458D01*
X99078990Y-75023458D02*
X99174228Y-75071077D01*
X99174228Y-75071077D02*
X99221847Y-75166315D01*
X99221847Y-75166315D02*
X99221847Y-75356791D01*
X99221847Y-75356791D02*
X99174228Y-75452029D01*
X98602800Y-75023458D02*
X98555180Y-75118696D01*
X98555180Y-75118696D02*
X98555180Y-75356791D01*
X98555180Y-75356791D02*
X98602800Y-75452029D01*
X98602800Y-75452029D02*
X98698038Y-75499648D01*
X98698038Y-75499648D02*
X98793276Y-75499648D01*
X98793276Y-75499648D02*
X98888514Y-75452029D01*
X98888514Y-75452029D02*
X98936133Y-75356791D01*
X98936133Y-75356791D02*
X98936133Y-75118696D01*
X98936133Y-75118696D02*
X98983752Y-75023458D01*
X98555180Y-74118696D02*
X99078990Y-74118696D01*
X99078990Y-74118696D02*
X99174228Y-74166315D01*
X99174228Y-74166315D02*
X99221847Y-74261553D01*
X99221847Y-74261553D02*
X99221847Y-74452029D01*
X99221847Y-74452029D02*
X99174228Y-74547267D01*
X98602800Y-74118696D02*
X98555180Y-74213934D01*
X98555180Y-74213934D02*
X98555180Y-74452029D01*
X98555180Y-74452029D02*
X98602800Y-74547267D01*
X98602800Y-74547267D02*
X98698038Y-74594886D01*
X98698038Y-74594886D02*
X98793276Y-74594886D01*
X98793276Y-74594886D02*
X98888514Y-74547267D01*
X98888514Y-74547267D02*
X98936133Y-74452029D01*
X98936133Y-74452029D02*
X98936133Y-74213934D01*
X98936133Y-74213934D02*
X98983752Y-74118696D01*
X98555180Y-73642505D02*
X99555180Y-73642505D01*
X98936133Y-73547267D02*
X98555180Y-73261553D01*
X99221847Y-73261553D02*
X98840895Y-73642505D01*
X98555180Y-72832981D02*
X99555180Y-72832981D01*
X98936133Y-72737743D02*
X98555180Y-72452029D01*
X99221847Y-72452029D02*
X98840895Y-72832981D01*
X99221847Y-72118695D02*
X98555180Y-71880600D01*
X99221847Y-71642505D02*
X98555180Y-71880600D01*
X98555180Y-71880600D02*
X98317085Y-71975838D01*
X98317085Y-71975838D02*
X98269466Y-72023457D01*
X98269466Y-72023457D02*
X98221847Y-72118695D01*
X99221847Y-71356790D02*
X98555180Y-71118695D01*
X99221847Y-70880600D02*
X98555180Y-71118695D01*
X98555180Y-71118695D02*
X98317085Y-71213933D01*
X98317085Y-71213933D02*
X98269466Y-71261552D01*
X98269466Y-71261552D02*
X98221847Y-71356790D01*
X98555180Y-70499647D02*
X99221847Y-70499647D01*
X99555180Y-70499647D02*
X99507561Y-70547266D01*
X99507561Y-70547266D02*
X99459942Y-70499647D01*
X99459942Y-70499647D02*
X99507561Y-70452028D01*
X99507561Y-70452028D02*
X99555180Y-70499647D01*
X99555180Y-70499647D02*
X99459942Y-70499647D01*
X98555180Y-70023457D02*
X99221847Y-70023457D01*
X99555180Y-70023457D02*
X99507561Y-70071076D01*
X99507561Y-70071076D02*
X99459942Y-70023457D01*
X99459942Y-70023457D02*
X99507561Y-69975838D01*
X99507561Y-69975838D02*
X99555180Y-70023457D01*
X99555180Y-70023457D02*
X99459942Y-70023457D01*
X91773333Y-70784819D02*
X91773333Y-71499104D01*
X91773333Y-71499104D02*
X91820952Y-71641961D01*
X91820952Y-71641961D02*
X91916190Y-71737200D01*
X91916190Y-71737200D02*
X92059047Y-71784819D01*
X92059047Y-71784819D02*
X92154285Y-71784819D01*
X90868571Y-71118152D02*
X90868571Y-71784819D01*
X91106666Y-70737200D02*
X91344761Y-71451485D01*
X91344761Y-71451485D02*
X90725714Y-71451485D01*
X96853333Y-70784819D02*
X96853333Y-71499104D01*
X96853333Y-71499104D02*
X96900952Y-71641961D01*
X96900952Y-71641961D02*
X96996190Y-71737200D01*
X96996190Y-71737200D02*
X97139047Y-71784819D01*
X97139047Y-71784819D02*
X97234285Y-71784819D01*
X95948571Y-70784819D02*
X96139047Y-70784819D01*
X96139047Y-70784819D02*
X96234285Y-70832438D01*
X96234285Y-70832438D02*
X96281904Y-70880057D01*
X96281904Y-70880057D02*
X96377142Y-71022914D01*
X96377142Y-71022914D02*
X96424761Y-71213390D01*
X96424761Y-71213390D02*
X96424761Y-71594342D01*
X96424761Y-71594342D02*
X96377142Y-71689580D01*
X96377142Y-71689580D02*
X96329523Y-71737200D01*
X96329523Y-71737200D02*
X96234285Y-71784819D01*
X96234285Y-71784819D02*
X96043809Y-71784819D01*
X96043809Y-71784819D02*
X95948571Y-71737200D01*
X95948571Y-71737200D02*
X95900952Y-71689580D01*
X95900952Y-71689580D02*
X95853333Y-71594342D01*
X95853333Y-71594342D02*
X95853333Y-71356247D01*
X95853333Y-71356247D02*
X95900952Y-71261009D01*
X95900952Y-71261009D02*
X95948571Y-71213390D01*
X95948571Y-71213390D02*
X96043809Y-71165771D01*
X96043809Y-71165771D02*
X96234285Y-71165771D01*
X96234285Y-71165771D02*
X96329523Y-71213390D01*
X96329523Y-71213390D02*
X96377142Y-71261009D01*
X96377142Y-71261009D02*
X96424761Y-71356247D01*
X129873333Y-70784819D02*
X129873333Y-71499104D01*
X129873333Y-71499104D02*
X129920952Y-71641961D01*
X129920952Y-71641961D02*
X130016190Y-71737200D01*
X130016190Y-71737200D02*
X130159047Y-71784819D01*
X130159047Y-71784819D02*
X130254285Y-71784819D01*
X128873333Y-71784819D02*
X129444761Y-71784819D01*
X129159047Y-71784819D02*
X129159047Y-70784819D01*
X129159047Y-70784819D02*
X129254285Y-70927676D01*
X129254285Y-70927676D02*
X129349523Y-71022914D01*
X129349523Y-71022914D02*
X129444761Y-71070533D01*
X132413333Y-70784819D02*
X132413333Y-71499104D01*
X132413333Y-71499104D02*
X132460952Y-71641961D01*
X132460952Y-71641961D02*
X132556190Y-71737200D01*
X132556190Y-71737200D02*
X132699047Y-71784819D01*
X132699047Y-71784819D02*
X132794285Y-71784819D01*
X131984761Y-70880057D02*
X131937142Y-70832438D01*
X131937142Y-70832438D02*
X131841904Y-70784819D01*
X131841904Y-70784819D02*
X131603809Y-70784819D01*
X131603809Y-70784819D02*
X131508571Y-70832438D01*
X131508571Y-70832438D02*
X131460952Y-70880057D01*
X131460952Y-70880057D02*
X131413333Y-70975295D01*
X131413333Y-70975295D02*
X131413333Y-71070533D01*
X131413333Y-71070533D02*
X131460952Y-71213390D01*
X131460952Y-71213390D02*
X132032380Y-71784819D01*
X132032380Y-71784819D02*
X131413333Y-71784819D01*
X134953333Y-70784819D02*
X134953333Y-71499104D01*
X134953333Y-71499104D02*
X135000952Y-71641961D01*
X135000952Y-71641961D02*
X135096190Y-71737200D01*
X135096190Y-71737200D02*
X135239047Y-71784819D01*
X135239047Y-71784819D02*
X135334285Y-71784819D01*
X134572380Y-70784819D02*
X133953333Y-70784819D01*
X133953333Y-70784819D02*
X134286666Y-71165771D01*
X134286666Y-71165771D02*
X134143809Y-71165771D01*
X134143809Y-71165771D02*
X134048571Y-71213390D01*
X134048571Y-71213390D02*
X134000952Y-71261009D01*
X134000952Y-71261009D02*
X133953333Y-71356247D01*
X133953333Y-71356247D02*
X133953333Y-71594342D01*
X133953333Y-71594342D02*
X134000952Y-71689580D01*
X134000952Y-71689580D02*
X134048571Y-71737200D01*
X134048571Y-71737200D02*
X134143809Y-71784819D01*
X134143809Y-71784819D02*
X134429523Y-71784819D01*
X134429523Y-71784819D02*
X134524761Y-71737200D01*
X134524761Y-71737200D02*
X134572380Y-71689580D01*
X126244819Y-65706666D02*
X126959104Y-65706666D01*
X126959104Y-65706666D02*
X127101961Y-65659047D01*
X127101961Y-65659047D02*
X127197200Y-65563809D01*
X127197200Y-65563809D02*
X127244819Y-65420952D01*
X127244819Y-65420952D02*
X127244819Y-65325714D01*
X126673390Y-66325714D02*
X126625771Y-66230476D01*
X126625771Y-66230476D02*
X126578152Y-66182857D01*
X126578152Y-66182857D02*
X126482914Y-66135238D01*
X126482914Y-66135238D02*
X126435295Y-66135238D01*
X126435295Y-66135238D02*
X126340057Y-66182857D01*
X126340057Y-66182857D02*
X126292438Y-66230476D01*
X126292438Y-66230476D02*
X126244819Y-66325714D01*
X126244819Y-66325714D02*
X126244819Y-66516190D01*
X126244819Y-66516190D02*
X126292438Y-66611428D01*
X126292438Y-66611428D02*
X126340057Y-66659047D01*
X126340057Y-66659047D02*
X126435295Y-66706666D01*
X126435295Y-66706666D02*
X126482914Y-66706666D01*
X126482914Y-66706666D02*
X126578152Y-66659047D01*
X126578152Y-66659047D02*
X126625771Y-66611428D01*
X126625771Y-66611428D02*
X126673390Y-66516190D01*
X126673390Y-66516190D02*
X126673390Y-66325714D01*
X126673390Y-66325714D02*
X126721009Y-66230476D01*
X126721009Y-66230476D02*
X126768628Y-66182857D01*
X126768628Y-66182857D02*
X126863866Y-66135238D01*
X126863866Y-66135238D02*
X127054342Y-66135238D01*
X127054342Y-66135238D02*
X127149580Y-66182857D01*
X127149580Y-66182857D02*
X127197200Y-66230476D01*
X127197200Y-66230476D02*
X127244819Y-66325714D01*
X127244819Y-66325714D02*
X127244819Y-66516190D01*
X127244819Y-66516190D02*
X127197200Y-66611428D01*
X127197200Y-66611428D02*
X127149580Y-66659047D01*
X127149580Y-66659047D02*
X127054342Y-66706666D01*
X127054342Y-66706666D02*
X126863866Y-66706666D01*
X126863866Y-66706666D02*
X126768628Y-66659047D01*
X126768628Y-66659047D02*
X126721009Y-66611428D01*
X126721009Y-66611428D02*
X126673390Y-66516190D01*
X94313333Y-70784819D02*
X94313333Y-71499104D01*
X94313333Y-71499104D02*
X94360952Y-71641961D01*
X94360952Y-71641961D02*
X94456190Y-71737200D01*
X94456190Y-71737200D02*
X94599047Y-71784819D01*
X94599047Y-71784819D02*
X94694285Y-71784819D01*
X93360952Y-70784819D02*
X93837142Y-70784819D01*
X93837142Y-70784819D02*
X93884761Y-71261009D01*
X93884761Y-71261009D02*
X93837142Y-71213390D01*
X93837142Y-71213390D02*
X93741904Y-71165771D01*
X93741904Y-71165771D02*
X93503809Y-71165771D01*
X93503809Y-71165771D02*
X93408571Y-71213390D01*
X93408571Y-71213390D02*
X93360952Y-71261009D01*
X93360952Y-71261009D02*
X93313333Y-71356247D01*
X93313333Y-71356247D02*
X93313333Y-71594342D01*
X93313333Y-71594342D02*
X93360952Y-71689580D01*
X93360952Y-71689580D02*
X93408571Y-71737200D01*
X93408571Y-71737200D02*
X93503809Y-71784819D01*
X93503809Y-71784819D02*
X93741904Y-71784819D01*
X93741904Y-71784819D02*
X93837142Y-71737200D01*
X93837142Y-71737200D02*
X93884761Y-71689580D01*
X126244819Y-68246666D02*
X126959104Y-68246666D01*
X126959104Y-68246666D02*
X127101961Y-68199047D01*
X127101961Y-68199047D02*
X127197200Y-68103809D01*
X127197200Y-68103809D02*
X127244819Y-67960952D01*
X127244819Y-67960952D02*
X127244819Y-67865714D01*
X126244819Y-68627619D02*
X126244819Y-69294285D01*
X126244819Y-69294285D02*
X127244819Y-68865714D01*
D11*
%TO.C,J4*%
X92770000Y-92770000D02*
X90110000Y-92770000D01*
X92770000Y-74930000D02*
X92770000Y-92770000D01*
X92770000Y-74930000D02*
X90110000Y-74930000D01*
X92770000Y-73660000D02*
X92770000Y-72330000D01*
X92770000Y-72330000D02*
X91440000Y-72330000D01*
X90110000Y-74930000D02*
X90110000Y-92770000D01*
%TO.C,J6*%
X97850000Y-92770000D02*
X95190000Y-92770000D01*
X97850000Y-74930000D02*
X97850000Y-92770000D01*
X97850000Y-74930000D02*
X95190000Y-74930000D01*
X97850000Y-73660000D02*
X97850000Y-72330000D01*
X97850000Y-72330000D02*
X96520000Y-72330000D01*
X95190000Y-74930000D02*
X95190000Y-92770000D01*
%TO.C,J1*%
X130870000Y-92770000D02*
X128210000Y-92770000D01*
X130870000Y-74930000D02*
X130870000Y-92770000D01*
X130870000Y-74930000D02*
X128210000Y-74930000D01*
X130870000Y-73660000D02*
X130870000Y-72330000D01*
X130870000Y-72330000D02*
X129540000Y-72330000D01*
X128210000Y-74930000D02*
X128210000Y-92770000D01*
%TO.C,J2*%
X133410000Y-92770000D02*
X130750000Y-92770000D01*
X133410000Y-74930000D02*
X133410000Y-92770000D01*
X133410000Y-74930000D02*
X130750000Y-74930000D01*
X133410000Y-73660000D02*
X133410000Y-72330000D01*
X133410000Y-72330000D02*
X132080000Y-72330000D01*
X130750000Y-74930000D02*
X130750000Y-92770000D01*
%TO.C,J3*%
X135950000Y-92770000D02*
X133290000Y-92770000D01*
X135950000Y-74930000D02*
X135950000Y-92770000D01*
X135950000Y-74930000D02*
X133290000Y-74930000D01*
X135950000Y-73660000D02*
X135950000Y-72330000D01*
X135950000Y-72330000D02*
X134620000Y-72330000D01*
X133290000Y-74930000D02*
X133290000Y-92770000D01*
%TO.C,J8*%
X100270000Y-67370000D02*
X100270000Y-64710000D01*
X123190000Y-67370000D02*
X100270000Y-67370000D01*
X123190000Y-67370000D02*
X123190000Y-64710000D01*
X124460000Y-67370000D02*
X125790000Y-67370000D01*
X125790000Y-67370000D02*
X125790000Y-66040000D01*
X123190000Y-64710000D02*
X100270000Y-64710000D01*
%TO.C,J5*%
X95310000Y-92770000D02*
X92650000Y-92770000D01*
X95310000Y-74930000D02*
X95310000Y-92770000D01*
X95310000Y-74930000D02*
X92650000Y-74930000D01*
X95310000Y-73660000D02*
X95310000Y-72330000D01*
X95310000Y-72330000D02*
X93980000Y-72330000D01*
X92650000Y-74930000D02*
X92650000Y-92770000D01*
%TO.C,J7*%
X100270000Y-69910000D02*
X100270000Y-67250000D01*
X123190000Y-69910000D02*
X100270000Y-69910000D01*
X123190000Y-69910000D02*
X123190000Y-67250000D01*
X124460000Y-69910000D02*
X125790000Y-69910000D01*
X125790000Y-69910000D02*
X125790000Y-68580000D01*
X123190000Y-67250000D02*
X100270000Y-67250000D01*
%TD*%
M02*
